G04 DipTrace 3.3.1.3*
G04 TopMask.gbr*
%MOIN*%
G04 #@! TF.FileFunction,Soldermask,Top*
G04 #@! TF.Part,Single*
%ADD98R,0.102368X0.082683*%
%ADD100R,0.082683X0.051187*%
%ADD102R,0.08662X0.082683*%
%ADD104R,0.043313X0.031502*%
%ADD106R,0.027565X0.070872*%
%ADD108R,0.031502X0.051187*%
%ADD110R,0.129927X0.12599*%
%ADD112R,0.024415X0.077959*%
%ADD114R,0.092526X0.135833*%
%ADD116R,0.092526X0.045282*%
%ADD118R,0.12599X0.129927*%
%ADD120R,0.077959X0.024415*%
%ADD122R,0.023628X0.078746*%
%ADD124R,0.021266X0.06103*%
%ADD126R,0.06103X0.021266*%
%ADD128R,0.074809X0.039376*%
%ADD130R,0.18788X0.20788*%
%ADD132R,0.04788X0.02388*%
%ADD134R,0.20788X0.18788*%
%ADD136R,0.02388X0.04788*%
%ADD138R,0.20788X0.20788*%
%ADD140R,0.224415X0.167329*%
%ADD142R,0.167329X0.224415*%
%ADD144R,0.117723X0.037014*%
%ADD146C,0.06225*%
%ADD148C,0.074809*%
%ADD150R,0.074809X0.074809*%
%ADD152R,0.15788X0.17488*%
%ADD154R,0.137801X0.072841*%
%ADD156R,0.072841X0.137801*%
%ADD158R,0.072841X0.129927*%
%ADD160R,0.059061X0.066935*%
%ADD162R,0.082683X0.275597*%
%ADD164R,0.078746X0.181108*%
%ADD166R,0.106305X0.255911*%
%ADD168R,0.070872X0.078746*%
%ADD170R,0.066935X0.059061*%
%ADD172R,0.078746X0.070872*%
%ADD174R,0.051187X0.04725*%
%ADD176R,0.04725X0.051187*%
%ADD178R,0.16536X0.16536*%
%ADD180R,0.133864X0.133864*%
%FSLAX26Y26*%
G04*
G70*
G90*
G75*
G01*
G04 TopMask*
%LPD*%
D180*
X774930Y999949D3*
D178*
Y1393650D3*
D180*
Y1787351D3*
D176*
X4056200Y2081200D3*
Y2148129D3*
D174*
X3237449Y1087451D3*
X3170520D3*
X3368700Y1145275D3*
X3301771D3*
D172*
X1893700Y1118700D3*
Y1008464D3*
D174*
X3368700Y1245275D3*
X3301771D3*
D176*
X3356200Y1424949D3*
Y1358020D3*
D170*
X1893700Y1331200D3*
Y1406003D3*
D176*
X3356200Y1487451D3*
Y1554380D3*
X3818700Y2012449D3*
Y1945520D3*
D168*
X3143700Y912449D3*
X3253936D3*
D170*
X3299949Y1793700D3*
Y1718897D3*
D176*
X3106200Y1774949D3*
Y1708020D3*
D168*
X2118700Y2006200D3*
X2008464D3*
D174*
X2918700Y906200D3*
X2985629D3*
X2649949D3*
X2583020D3*
X2493700D3*
X2426771D3*
D176*
X2006200Y1056200D3*
Y1123129D3*
Y1331200D3*
Y1398129D3*
Y1543700D3*
Y1610629D3*
D174*
X2131200Y1893700D3*
X2064271D3*
X2393700Y1993700D3*
X2460629D3*
X2593700D3*
X2660629D3*
X2843700D3*
X2910629D3*
D176*
X3193700Y1774949D3*
Y1708020D3*
X3106200Y1418700D3*
Y1351771D3*
D174*
X1506200Y2243700D3*
X1439271D3*
D176*
X2356200Y2818700D3*
Y2885629D3*
X2456200Y2818700D3*
Y2885629D3*
D170*
X2112449Y2468700D3*
Y2393897D3*
D166*
X3806200Y4693700D3*
Y4181889D3*
D164*
X3831200Y3456200D3*
Y3164861D3*
D162*
X1256200Y5106200D3*
X1102657D3*
D160*
X2968602Y5356200D3*
X2893798D3*
D174*
X2381200Y5481200D3*
X2448129D3*
X1881200Y5881200D3*
X1814271D3*
X1981200D3*
X2048129D3*
D158*
X3556200Y5531200D3*
Y5700491D3*
X3231200Y5531200D3*
Y5700491D3*
D174*
X2964665Y5481200D3*
X2897735D3*
D172*
X1631200Y5556200D3*
Y5666436D3*
D156*
X1381200Y5356200D3*
Y5560924D3*
D174*
X2793700Y5768700D3*
X2726771D3*
D160*
X2381200Y5781200D3*
X2456003D3*
D154*
X693700Y3118700D3*
X898424D3*
D176*
X906200Y5206200D3*
Y5273129D3*
D174*
X1093700Y5381200D3*
X1026771D3*
X1093700Y5481200D3*
X1026771D3*
D176*
X956200Y5781200D3*
Y5848129D3*
D168*
X906200Y4356200D3*
X1016436D3*
D154*
X906200Y4081200D3*
X701476D3*
D176*
X627165Y5627165D3*
Y5560235D3*
D170*
X647735Y5264468D3*
Y5189665D3*
D176*
X3681200Y2718700D3*
Y2651771D3*
X1412449Y824951D3*
Y758022D3*
X3681200Y1868700D3*
Y1801771D3*
X993700Y2056200D3*
Y2123129D3*
X3681200Y1306200D3*
Y1239271D3*
D174*
X1768700Y3043700D3*
X1701771D3*
X2618700D3*
X2551771D3*
X3468700D3*
X3401771D3*
D160*
X1543700Y3206200D3*
X1618503D3*
X2393897D3*
X2468700D3*
X3243700D3*
X3318503D3*
D162*
X1318700Y3318700D3*
X1165157D3*
X2168700D3*
X2015157D3*
X3018700D3*
X2865157D3*
D160*
X1543700Y3443700D3*
X1618503D3*
X2393700D3*
X2468503D3*
X3243700D3*
X3318503D3*
D174*
X1293700Y2543700D3*
X1360629D3*
X1293700Y2443700D3*
X1360629D3*
X1293700Y2343700D3*
X1360629D3*
X1768700Y3206200D3*
X1701771D3*
X2618700D3*
X2551771D3*
X3468700D3*
X3401771D3*
D152*
X3856200Y5431200D3*
Y5682200D3*
D150*
X3331200Y5356200D3*
D148*
X3431200D3*
D150*
X1456200Y5831200D3*
D148*
Y5731200D3*
D150*
X856200Y2868700D3*
D148*
X756200D3*
D150*
X1281200Y5831200D3*
D148*
Y5731200D3*
D150*
X1106200D3*
D148*
Y5831200D3*
D150*
X856200Y3831200D3*
D148*
X756200D3*
D146*
X3868700Y2606200D3*
X3789960D3*
X3868700Y2527460D3*
X3789960D3*
X3868700Y2448720D3*
X3789960D3*
X3868700Y2369980D3*
X3789960D3*
X3868700Y2291239D3*
X3789960D3*
D144*
X1537449Y831200D3*
Y781200D3*
Y731200D3*
Y681200D3*
Y631200D3*
X1697686D3*
Y681200D3*
Y731200D3*
Y781200D3*
Y831200D3*
D146*
X3868700Y1768700D3*
X3789960D3*
X3868700Y1689960D3*
X3789960D3*
X3868700Y1611220D3*
X3789960D3*
X3868700Y1532480D3*
X3789960D3*
X3868700Y1453739D3*
X3789960D3*
X793700Y2143700D3*
X872440D3*
X793700Y2222440D3*
X872440D3*
X793700Y2301180D3*
X872440D3*
X793700Y2379920D3*
X872440D3*
X793700Y2458661D3*
X872440D3*
X3868700Y1206200D3*
X3789960D3*
X3868700Y1127460D3*
X3789960D3*
X3868700Y1048720D3*
X3789960D3*
X3868700Y969980D3*
X3789960D3*
X3868700Y891239D3*
X3789960D3*
D150*
X3031200Y2162449D3*
D148*
X3131200D3*
X3031200Y2062449D3*
X3131200D3*
D150*
X1743700Y2293700D3*
D148*
X1643700D3*
X1743700Y2393700D3*
X1643700D3*
X1743700Y2493700D3*
X1643700D3*
D150*
X2593700Y712449D3*
D148*
X2493700D3*
X2593700Y812449D3*
X2493700D3*
D150*
X1643700Y2093700D3*
D148*
X1743700D3*
X1643700Y1993700D3*
X1743700D3*
X1643700Y1893700D3*
X1743700D3*
X1643700Y1793700D3*
X1743700D3*
D142*
X2206200Y5556200D3*
X1806594D3*
D140*
X781200Y5006200D3*
Y4606594D3*
D138*
X3856200Y5106200D3*
Y3818700D3*
X1243700Y4493700D3*
X2090575Y4496825D3*
X2940575Y4493700D3*
D136*
X1543700Y4729502D3*
X1493700D3*
X1443700D3*
X1393700D3*
D134*
X1468700Y4889502D3*
D136*
X2393700Y4729502D3*
X2343700D3*
X2293700D3*
X2243700D3*
D134*
X2318700Y4889502D3*
D136*
X3243700Y4729502D3*
X3193700D3*
X3143700D3*
X3093700D3*
D134*
X3168700Y4889502D3*
D132*
X1618700Y4568700D3*
Y4518700D3*
Y4468700D3*
Y4418700D3*
D130*
X1458700Y4493700D3*
D132*
X2468700Y4568700D3*
Y4518700D3*
Y4468700D3*
Y4418700D3*
D130*
X2308700Y4493700D3*
D132*
X3318700Y4568700D3*
Y4518700D3*
Y4468700D3*
Y4418700D3*
D130*
X3158700Y4493700D3*
D176*
X2774949Y831200D3*
Y898129D3*
X4056200Y1949951D3*
Y2016880D3*
X3106200Y1556200D3*
Y1489271D3*
X3818700Y2143700D3*
Y2076771D3*
D174*
X2593700Y2093700D3*
X2660629D3*
X1510629Y2343700D3*
X1443700D3*
X1506200Y2443700D3*
X1439271D3*
X1506200Y2543700D3*
X1439271D3*
D176*
X2506200Y2168700D3*
Y2101771D3*
D174*
X1143700Y2543700D3*
X1210629D3*
X1139665Y2439665D3*
X1206594D3*
X1143700Y2343700D3*
X1210629D3*
X1206200Y2243700D3*
X1139271D3*
X2443700Y5581200D3*
X2376771D3*
X2964665Y5831200D3*
X2897735D3*
X2206200Y5881200D3*
X2139271D3*
X2964665Y5631200D3*
X2897735D3*
D176*
X1581200Y5818700D3*
Y5751771D3*
X4031200Y5656200D3*
Y5723129D3*
D174*
X2897735Y5731200D3*
X2964665D3*
D176*
X1681200Y5818700D3*
Y5751771D3*
X4031200Y5506200D3*
Y5573129D3*
X781200Y5273129D3*
Y5206200D3*
X631200Y5856200D3*
Y5789271D3*
D174*
X1031200Y5581200D3*
X1098129D3*
D176*
X835629Y5781200D3*
Y5848129D3*
D174*
X718700Y4356200D3*
X785629D3*
D176*
X731200Y5781200D3*
Y5848129D3*
D174*
X556200Y4356200D3*
X623129D3*
D176*
X3906200Y2849951D3*
Y2916880D3*
X3806200Y2849951D3*
Y2916880D3*
D174*
X1831200Y768700D3*
X1898129D3*
X1831200Y837451D3*
X1898129D3*
X1831200Y631200D3*
X1898129D3*
X1831200Y699951D3*
X1898129D3*
D176*
X3643700Y1649951D3*
Y1716880D3*
Y1512451D3*
Y1579380D3*
X3543700Y1718700D3*
Y1651771D3*
Y1581200D3*
Y1514271D3*
D174*
X1962451Y1681200D3*
X2029380D3*
X1962451Y1743700D3*
X2029380D3*
X1962451Y1806200D3*
X2029380D3*
D176*
X4087449Y681200D3*
Y748129D3*
X3987449Y681200D3*
Y748129D3*
X3887449Y681200D3*
Y748129D3*
D174*
X1543700Y3331200D3*
X1610629D3*
X2393700D3*
X2460629D3*
X3243700D3*
X3310629D3*
X1618700Y4718700D3*
X1685629D3*
X2468700D3*
X2535629D3*
X3318700D3*
X3385629D3*
X1393700Y3043700D3*
X1326771D3*
X2243700Y3031200D3*
X2176771D3*
X3093700D3*
X3026771D3*
X1393700Y2943700D3*
X1326771D3*
X2243700D3*
X2176771D3*
X3093700D3*
X3026771D3*
D176*
X1268700Y3668700D3*
Y3601771D3*
X2118700Y3668700D3*
Y3601771D3*
X2968700Y3668700D3*
Y3601771D3*
D174*
X1618700Y4618700D3*
X1685629D3*
X2468700D3*
X2535629D3*
X3318700D3*
X3385629D3*
D128*
X3918700Y2106200D3*
Y1972342D3*
X3687449Y2106200D3*
Y1972342D3*
D126*
X2981200Y1093700D3*
Y1113385D3*
Y1133070D3*
Y1152755D3*
Y1172440D3*
Y1192125D3*
Y1211810D3*
Y1231495D3*
Y1251180D3*
Y1270865D3*
Y1290550D3*
Y1310235D3*
Y1329920D3*
Y1349606D3*
Y1369291D3*
Y1388976D3*
Y1408661D3*
Y1428346D3*
Y1448031D3*
Y1467716D3*
Y1487401D3*
Y1507086D3*
Y1526771D3*
Y1546456D3*
Y1566141D3*
Y1585826D3*
Y1605511D3*
Y1625196D3*
Y1644881D3*
Y1664566D3*
Y1684251D3*
Y1703936D3*
Y1723621D3*
Y1743306D3*
Y1762991D3*
Y1782676D3*
D124*
X2907381Y1856495D3*
X2887696D3*
X2868011D3*
X2848326D3*
X2828641D3*
X2808956D3*
X2789271D3*
X2769586D3*
X2749901D3*
X2730216D3*
X2710531D3*
X2690846D3*
X2671161D3*
X2651476D3*
X2631791D3*
X2612106D3*
X2592420D3*
X2572735D3*
X2553050D3*
X2533365D3*
X2513680D3*
X2493995D3*
X2474310D3*
X2454625D3*
X2434940D3*
X2415255D3*
X2395570D3*
X2375885D3*
X2356200D3*
X2336515D3*
X2316830D3*
X2297145D3*
X2277460D3*
X2257775D3*
X2238090D3*
X2218405D3*
D126*
X2144586Y1782676D3*
Y1762991D3*
Y1743306D3*
Y1723621D3*
Y1703936D3*
Y1684251D3*
Y1664566D3*
Y1644881D3*
Y1625196D3*
Y1605511D3*
Y1585826D3*
Y1566141D3*
Y1546456D3*
Y1526771D3*
Y1507086D3*
Y1487401D3*
Y1467716D3*
Y1448031D3*
Y1428346D3*
Y1408661D3*
Y1388976D3*
Y1369291D3*
Y1349606D3*
Y1329920D3*
Y1310235D3*
Y1290550D3*
Y1270865D3*
Y1251180D3*
Y1231495D3*
Y1211810D3*
Y1192125D3*
Y1172440D3*
Y1152755D3*
Y1133070D3*
Y1113385D3*
Y1093700D3*
D124*
X2218405Y1019881D3*
X2238090D3*
X2257775D3*
X2277460D3*
X2297145D3*
X2316830D3*
X2336515D3*
X2356200D3*
X2375885D3*
X2395570D3*
X2415255D3*
X2434940D3*
X2454625D3*
X2474310D3*
X2493995D3*
X2513680D3*
X2533365D3*
X2553050D3*
X2572735D3*
X2592420D3*
X2612106D3*
X2631791D3*
X2651476D3*
X2671161D3*
X2690846D3*
X2710531D3*
X2730216D3*
X2749901D3*
X2769586D3*
X2789271D3*
X2808956D3*
X2828641D3*
X2848326D3*
X2868011D3*
X2887696D3*
X2907381D3*
D122*
X2231200Y2318700D3*
X2256791D3*
X2282381D3*
X2307972D3*
X2333562D3*
X2359153D3*
X2384743D3*
X2410334D3*
X2435924D3*
X2461515D3*
X2487106D3*
X2512696D3*
X2538287D3*
X2563877D3*
Y2547054D3*
X2538287Y2547046D3*
X2512696D3*
X2487106D3*
X2461515D3*
X2435924D3*
X2410334D3*
X2384743D3*
X2359153D3*
X2333562D3*
X2307972D3*
X2282381D3*
X2256791D3*
X2231200D3*
D120*
X2781200Y5518700D3*
Y5544289D3*
Y5569880D3*
Y5595470D3*
Y5621061D3*
Y5646651D3*
Y5672242D3*
X2547342D3*
Y5646651D3*
Y5621061D3*
Y5595470D3*
Y5569880D3*
Y5544289D3*
Y5518700D3*
D118*
X2664271Y5595470D3*
D116*
X931200Y3381200D3*
Y3471751D3*
Y3562302D3*
D114*
X702854Y3471751D3*
D112*
X906200Y5631200D3*
X880611D3*
X855020D3*
X829430D3*
X803839D3*
X778249D3*
X752658D3*
Y5397342D3*
X778249D3*
X803839D3*
X829430D3*
X855020D3*
X880611D3*
X906200D3*
D110*
X829430Y5514271D3*
D108*
X1618700Y3093700D3*
X1581298D3*
X1543897D3*
Y2987401D3*
X1618700D3*
X2468700Y3093700D3*
X2431298D3*
X2393897D3*
Y2987401D3*
X2468700D3*
X3318700Y3093700D3*
X3281298D3*
X3243897D3*
Y2987401D3*
X3318700D3*
D106*
X1518700Y3668700D3*
X1581692D3*
X1644684D3*
D104*
X1471456Y3767125D3*
X1691928D3*
D102*
X1522637Y3865550D3*
X1640747D3*
D106*
X2368700Y3668700D3*
X2431692D3*
X2494684D3*
D104*
X2321456Y3767125D3*
X2541928D3*
D102*
X2372637Y3865550D3*
X2490747D3*
D106*
X3218700Y3668700D3*
X3281692D3*
X3344684D3*
D104*
X3171456Y3767125D3*
X3391928D3*
D102*
X3222637Y3865550D3*
X3340747D3*
D100*
X3193700Y1243700D3*
Y1145275D3*
D98*
X3206200Y1537451D3*
Y1376033D3*
G36*
X1331200Y5256200D2*
X3993700D1*
Y4943700D1*
X1331200D1*
Y5256200D1*
G37*
G36*
X1143700Y4593700D2*
Y4393700D1*
X1499951D1*
Y4743700D1*
X1368700D1*
Y4593700D1*
X1143700D1*
G37*
G36*
X1560906Y4315970D2*
X1446473Y4317054D1*
X1401459Y4261735D1*
X1487148Y3896741D1*
X1560364Y3895657D1*
Y3896199D1*
X1560906Y4315970D1*
G37*
G36*
X1604293Y4526940D2*
X1602666Y3897826D1*
X1679679Y3891317D1*
X1749641Y4483553D1*
X1702457Y4523687D1*
X1604293Y4526940D1*
G37*
G36*
X1992977Y4593905D2*
Y4393905D1*
X2349228D1*
Y4743905D1*
X2217977D1*
Y4593905D1*
X1992977D1*
G37*
G36*
X2410183Y4316175D2*
X2295750Y4317259D1*
X2250735Y4261940D1*
X2336424Y3896945D1*
X2409641Y3895861D1*
Y3896403D1*
X2410183Y4316175D1*
G37*
G36*
X2453570Y4527145D2*
X2451943Y3898031D1*
X2528956Y3891522D1*
X2598918Y4483758D1*
X2551734Y4523892D1*
X2453570Y4527145D1*
G37*
G36*
X2843676Y4593905D2*
Y4393905D1*
X3199927D1*
Y4743905D1*
X3068676D1*
Y4593905D1*
X2843676D1*
G37*
G36*
X3260882Y4316175D2*
X3146449Y4317259D1*
X3101435Y4261940D1*
X3187124Y3896945D1*
X3260340Y3895861D1*
Y3896403D1*
X3260882Y4316175D1*
G37*
G36*
X3304270Y4527145D2*
X3302642Y3898031D1*
X3379655Y3891522D1*
X3449617Y4483758D1*
X3402434Y4523892D1*
X3304270Y4527145D1*
G37*
G36*
X3743700Y3931200D2*
X3968700D1*
Y3693700D1*
X3743700D1*
Y3931200D1*
G37*
M02*
