G04 DipTrace 3.3.1.3*
G04 BottomSilk.gbr*
%MOIN*%
G04 #@! TF.FileFunction,Legend,Bot*
G04 #@! TF.Part,Single*
%ADD184C,0.021615*%
%FSLAX26Y26*%
G04*
G70*
G90*
G75*
G01*
G04 BotSilk*
%LPD*%
X3072820Y5475773D2*
D184*
Y5368683D1*
X3079475Y5348565D1*
X3086284Y5341911D1*
X3099593Y5335101D1*
X3113057D1*
X3126366Y5341911D1*
X3133020Y5348565D1*
X3139829Y5368683D1*
Y5381992D1*
X2996164Y5428883D2*
X3009472Y5422228D1*
X3022936Y5408765D1*
X3029591Y5388647D1*
Y5375338D1*
X3022936Y5355220D1*
X3009472Y5341911D1*
X2996164Y5335101D1*
X2976045D1*
X2962582Y5341911D1*
X2949273Y5355220D1*
X2942464Y5375338D1*
Y5388647D1*
X2949273Y5408765D1*
X2962582Y5422228D1*
X2976045Y5428883D1*
X2996164D1*
X2899234Y5475773D2*
Y5335101D1*
Y5402110D2*
X2879116Y5422228D1*
X2865652Y5428883D1*
X2845534D1*
X2832225Y5422228D1*
X2825571Y5402110D1*
Y5335101D1*
X2782341Y5428883D2*
Y5335101D1*
Y5402110D2*
X2762223Y5422228D1*
X2748759Y5428883D1*
X2728796D1*
X2715332Y5422228D1*
X2708677Y5402110D1*
Y5335101D1*
X2529365Y5475773D2*
X2435583D1*
X2529365Y5335101D1*
X2435583D1*
X2392354Y5388647D2*
X2312036D1*
Y5402110D1*
X2318690Y5415574D1*
X2325345Y5422228D1*
X2338808Y5428883D1*
X2358927D1*
X2372235Y5422228D1*
X2385699Y5408765D1*
X2392354Y5388647D1*
Y5375338D1*
X2385699Y5355220D1*
X2372235Y5341911D1*
X2358927Y5335101D1*
X2338808D1*
X2325345Y5341911D1*
X2312036Y5355220D1*
X2268806Y5475773D2*
Y5335101D1*
Y5402110D2*
X2248688Y5422228D1*
X2235224Y5428883D1*
X2215106D1*
X2201797Y5422228D1*
X2195143Y5402110D1*
Y5335101D1*
X2151913Y5388647D2*
X2071595D1*
Y5402110D1*
X2078250Y5415574D1*
X2084904Y5422228D1*
X2098368Y5428883D1*
X2118486D1*
X2131795Y5422228D1*
X2145258Y5408765D1*
X2151913Y5388647D1*
Y5375338D1*
X2145258Y5355220D1*
X2131795Y5341911D1*
X2118486Y5335101D1*
X2098368D1*
X2084904Y5341911D1*
X2071595Y5355220D1*
X2008247Y5475773D2*
Y5361874D1*
X2001593Y5341911D1*
X1988129Y5335101D1*
X1974820D1*
X2028365Y5428883D2*
X1981475D1*
X1931590D2*
Y5335101D1*
Y5402110D2*
X1911472Y5422228D1*
X1898009Y5428883D1*
X1878045D1*
X1864582Y5422228D1*
X1857927Y5402110D1*
Y5335101D1*
X1814697Y5388647D2*
X1734379D1*
Y5402110D1*
X1741034Y5415574D1*
X1747688Y5422228D1*
X1761152Y5428883D1*
X1781270D1*
X1794579Y5422228D1*
X1808043Y5408765D1*
X1814697Y5388647D1*
Y5375338D1*
X1808043Y5355220D1*
X1794579Y5341911D1*
X1781270Y5335101D1*
X1761152D1*
X1747688Y5341911D1*
X1734379Y5355220D1*
X1691150Y5428883D2*
Y5335101D1*
Y5388647D2*
X1684340Y5408765D1*
X1671031Y5422228D1*
X1657568Y5428883D1*
X1637450D1*
X3031116Y5072601D2*
Y5213273D1*
X3084661Y5072601D1*
X3138206Y5213273D1*
Y5072601D1*
X2954459Y5166383D2*
X2967768Y5159728D1*
X2981231Y5146265D1*
X2987886Y5126147D1*
Y5112838D1*
X2981231Y5092720D1*
X2967768Y5079411D1*
X2954459Y5072601D1*
X2934341D1*
X2920877Y5079411D1*
X2907568Y5092720D1*
X2900759Y5112838D1*
Y5126147D1*
X2907568Y5146265D1*
X2920877Y5159728D1*
X2934341Y5166383D1*
X2954459D1*
X2837411Y5213273D2*
Y5099374D1*
X2830756Y5079411D1*
X2817293Y5072601D1*
X2803984D1*
X2857529Y5166383D2*
X2810638D1*
X2727327D2*
X2740636Y5159728D1*
X2754100Y5146265D1*
X2760754Y5126147D1*
Y5112838D1*
X2754100Y5092720D1*
X2740636Y5079411D1*
X2727327Y5072601D1*
X2707209D1*
X2693745Y5079411D1*
X2680436Y5092720D1*
X2673627Y5112838D1*
Y5126147D1*
X2680436Y5146265D1*
X2693745Y5159728D1*
X2707209Y5166383D1*
X2727327D1*
X2630397D2*
Y5072601D1*
Y5126147D2*
X2623588Y5146265D1*
X2610279Y5159728D1*
X2596815Y5166383D1*
X2576697D1*
X2296949Y5179846D2*
X2303603Y5193155D1*
X2317067Y5206619D1*
X2330376Y5213273D1*
X2357149D1*
X2370612Y5206619D1*
X2383921Y5193155D1*
X2390730Y5179846D1*
X2397385Y5159728D1*
Y5126147D1*
X2390730Y5106183D1*
X2383921Y5092720D1*
X2370612Y5079411D1*
X2357149Y5072601D1*
X2330376D1*
X2317067Y5079411D1*
X2303603Y5092720D1*
X2296949Y5106183D1*
X2220292Y5166383D2*
X2233601Y5159728D1*
X2247065Y5146265D1*
X2253719Y5126147D1*
Y5112838D1*
X2247065Y5092720D1*
X2233601Y5079411D1*
X2220292Y5072601D1*
X2200174D1*
X2186710Y5079411D1*
X2173401Y5092720D1*
X2166592Y5112838D1*
Y5126147D1*
X2173401Y5146265D1*
X2186710Y5159728D1*
X2200174Y5166383D1*
X2220292D1*
X2123362D2*
Y5072601D1*
Y5139610D2*
X2103244Y5159728D1*
X2089781Y5166383D1*
X2069817D1*
X2056354Y5159728D1*
X2049699Y5139610D1*
Y5072601D1*
X1986351Y5213273D2*
Y5099374D1*
X1979697Y5079411D1*
X1966233Y5072601D1*
X1952924D1*
X2006469Y5166383D2*
X1959579D1*
X1909694D2*
Y5072601D1*
Y5126147D2*
X1902885Y5146265D1*
X1889576Y5159728D1*
X1876112Y5166383D1*
X1855994D1*
X1779337D2*
X1792646Y5159728D1*
X1806110Y5146265D1*
X1812764Y5126147D1*
Y5112838D1*
X1806110Y5092720D1*
X1792646Y5079411D1*
X1779337Y5072601D1*
X1759219D1*
X1745756Y5079411D1*
X1732447Y5092720D1*
X1725638Y5112838D1*
Y5126147D1*
X1732447Y5146265D1*
X1745756Y5159728D1*
X1759219Y5166383D1*
X1779337D1*
X1682408Y5213273D2*
Y5072601D1*
X1639178Y5213273D2*
Y5072601D1*
X1595948Y5126147D2*
X1515630D1*
Y5139610D1*
X1522285Y5153074D1*
X1528939Y5159728D1*
X1542403Y5166383D1*
X1562521D1*
X1575830Y5159728D1*
X1589293Y5146265D1*
X1595948Y5126147D1*
Y5112838D1*
X1589293Y5092720D1*
X1575830Y5079411D1*
X1562521Y5072601D1*
X1542403D1*
X1528939Y5079411D1*
X1515630Y5092720D1*
X1472400Y5166383D2*
Y5072601D1*
Y5126147D2*
X1465591Y5146265D1*
X1452282Y5159728D1*
X1438818Y5166383D1*
X1418700D1*
X3131599Y4892192D2*
Y4898846D1*
X3124944Y4912310D1*
X3118290Y4918964D1*
X3104826Y4925619D1*
X3078054D1*
X3064745Y4918964D1*
X3058090Y4912310D1*
X3051281Y4898846D1*
Y4885537D1*
X3058090Y4872074D1*
X3071399Y4852110D1*
X3138408Y4785101D1*
X3044627D1*
X2961161Y4925619D2*
X2981279Y4918964D1*
X2994742Y4898846D1*
X3001397Y4865419D1*
Y4845301D1*
X2994742Y4811874D1*
X2981279Y4791756D1*
X2961161Y4785101D1*
X2947852D1*
X2927734Y4791756D1*
X2914425Y4811874D1*
X2907616Y4845301D1*
Y4865419D1*
X2914425Y4898846D1*
X2927734Y4918964D1*
X2947852Y4925619D1*
X2961161D1*
X2914425Y4898846D2*
X2994742Y4811874D1*
X2864386Y4898846D2*
X2850922Y4905655D1*
X2830804Y4925619D1*
Y4785101D1*
X2700447Y4878883D2*
X2707256Y4858765D1*
X2720565Y4845301D1*
X2740683Y4838647D1*
X2747338D1*
X2767456Y4845301D1*
X2780765Y4858765D1*
X2787574Y4878883D1*
Y4885537D1*
X2780765Y4905655D1*
X2767456Y4918964D1*
X2747338Y4925619D1*
X2740683D1*
X2720565Y4918964D1*
X2707256Y4905655D1*
X2700447Y4878883D1*
Y4845301D1*
X2707256Y4811874D1*
X2720565Y4791756D1*
X2740683Y4785101D1*
X2753992D1*
X2774110Y4791756D1*
X2780765Y4805220D1*
X2521134Y4858765D2*
X2460935D1*
X2440817Y4865574D1*
X2434008Y4872228D1*
X2427353Y4885537D1*
Y4899001D1*
X2434008Y4912310D1*
X2440817Y4919119D1*
X2460935Y4925773D1*
X2521134D1*
Y4785101D1*
X2474244Y4858765D2*
X2427353Y4785101D1*
X2384123Y4838647D2*
X2303806D1*
Y4852110D1*
X2310460Y4865574D1*
X2317114Y4872228D1*
X2330578Y4878883D1*
X2350696D1*
X2364005Y4872228D1*
X2377469Y4858765D1*
X2384123Y4838647D1*
Y4825338D1*
X2377469Y4805220D1*
X2364005Y4791911D1*
X2350696Y4785101D1*
X2330578D1*
X2317114Y4791911D1*
X2303806Y4805220D1*
X2260576Y4878883D2*
X2220339Y4785101D1*
X2180258Y4878883D1*
X1893700Y4785101D2*
X1947400Y4925773D1*
X2000945Y4785101D1*
X1980827Y4831992D2*
X1913818D1*
M02*
