M48
INCH
T01C0.025
T02C0.0335
T03C0.035
T04C0.0433
T05C0.085
T06C0.14
%
T01
X+029562Y+018437
X+030374Y+019250
X+028877Y+017502
X+028250Y+016062
X+026562Y+017437
X+024687Y+017437
X+024687Y+019437
X+025187Y+019687
X+024562Y+020437
X+023937Y+020937
X+024312Y+021562
X+023562Y+021687
X+022937Y+021687
X+022187Y+021687
X+023062Y+020937
X+020562Y+019437
X+022499Y+016000
X+022812Y+014937
X+022499Y+013875
X+022499Y+011375
X+024124Y+011249
X+026125Y+011250
X+026874Y+009562
X+029812Y+009562
X+032062Y+010374
X+033312Y+009124
X+033687Y+011953
X+035562Y+013187
X+036124Y+013187
X+034919Y+015143
X+035937Y+016062
X+034955Y+016518
X+035312Y+019000
X+035937Y+019375
X+035937Y+020187
X+037062Y+020562
X+037746Y+020441
X+039312Y+020500
X+039187Y+019000
X+040874Y+018687
X+040499Y+011374
X+033124Y+014562
X+031312Y+012812
X+030812Y+012625
X+028749Y+013687
X+032437Y+017062
X+032999Y+018625
X+029249Y+022812
X+027624Y+022374
X+027562Y+021687
X+026187Y+023187
X+026062Y+025562
X+025687Y+028062
X+025687Y+028812
X+025124Y+029874
X+025187Y+031562
X+022937Y+031062
X+021062Y+031187
X+020687Y+029062
X+019937Y+029312
X+019062Y+029812
X+018499Y+028375
X+017937Y+027062
X+019187Y+026562
X+021562Y+026062
X+023437Y+027187
X+027312Y+028062
X+028187Y+030937
X+029062Y+030937
X+031437Y+031062
X+033687Y+031562
X+033812Y+034437
X+032817Y+035807
X+025375Y+034437
X+024312Y+035937
X+016812Y+034437
X+015823Y+035871
X+016812Y+031435
X+017187Y+029062
X+016687Y+028562
X+015687Y+028562
X+015187Y+028937
X+014687Y+029437
X+014437Y+031062
X+011687Y+029562
X+012374Y+028250
X+014562Y+026312
X+014062Y+024812
X+013606Y+022981
X+013562Y+022062
X+020560Y+023939
X+028937Y+024562
X+029562Y+026062
X+031312Y+027437
X+035937Y+027500
X+035937Y+025875
X+038062Y+027874
X+039062Y+027875
X+019437Y+010562
X+019749Y+008812
X+019749Y+007687
X+019749Y+006937
X+019749Y+005999
X+021374Y+007250
X+014312Y+006812
X+014124Y+008937
X+008250Y+013937
X+008437Y+032235
X+007062Y+041687
X+010187Y+044812
X+011062Y+052812
X+013015Y+055609
X+009245Y+056312
X+006937Y+055143
X+005812Y+051937
X+007893Y+059062
X+011937Y+059312
X+017312Y+058187
X+024562Y+058562
X+026312Y+057562
X+026643Y+054643
X+028143Y+054643
X+031312Y+056562
X+040312Y+054062
T02
X+038687Y+026062
X+037900Y+026062
X+037900Y+025275
X+038687Y+025275
X+038687Y+024487
X+037900Y+024487
X+037900Y+023700
X+038687Y+023700
X+038687Y+022912
X+037900Y+022912
X+037900Y+017687
X+038687Y+017687
X+038687Y+016900
X+037900Y+016900
X+037900Y+016112
X+038687Y+016112
X+038687Y+015325
X+037900Y+015325
X+037900Y+014537
X+038687Y+014537
X+038687Y+012062
X+037900Y+012062
X+037900Y+011275
X+038687Y+011275
X+038687Y+010487
X+037900Y+010487
X+037900Y+009700
X+038687Y+009700
X+038687Y+008912
X+037900Y+008912
X+008724Y+021437
X+007937Y+021437
X+007937Y+022224
X+008724Y+022224
X+008724Y+023012
X+007937Y+023012
X+007937Y+023799
X+008724Y+023799
X+008724Y+024587
X+007937Y+024587
T03
X+034736Y+056312
T04
X+033312Y+053562
X+034312Y+053562
X+014562Y+057312
X+014562Y+058312
X+012812Y+058312
X+012812Y+057312
X+011062Y+057312
X+011062Y+058312
X+008562Y+038312
X+007562Y+038312
X+007562Y+028687
X+008562Y+028687
X+016437Y+024937
X+016437Y+023937
X+016437Y+022937
X+017437Y+022937
X+017437Y+023937
X+017437Y+024937
X+017437Y+020937
X+016437Y+020937
X+016437Y+019937
X+017437Y+019937
X+017437Y+018937
X+016437Y+018937
X+016437Y+017937
X+017437Y+017937
X+024937Y+008124
X+024937Y+007124
X+025937Y+007124
X+025937Y+008124
X+030312Y+020624
X+031312Y+020624
X+031312Y+021624
X+030312Y+021624
T05
X+014864Y+042418
X+023312Y+042375
X+031843Y+042343
T06
X+038562Y+051062
X+029406Y+044937
X+020906Y+044968
X+012437Y+044937
X+038562Y+038187
T00
M30
