G04 DipTrace 3.3.1.3*
G04 BottomMask.gbr*
%MOIN*%
G04 #@! TF.FileFunction,Soldermask,Bot*
G04 #@! TF.Part,Single*
%ADD24C,0.156249*%
%ADD25C,0.15*%
%ADD26C,0.2125*%
%ADD138R,0.20788X0.20788*%
%ADD146C,0.06225*%
%ADD148C,0.074809*%
%ADD150R,0.074809X0.074809*%
%FSLAX26Y26*%
G04*
G70*
G90*
G75*
G01*
G04 BotMask*
%LPD*%
D150*
X3331200Y5356200D3*
D148*
X3431200D3*
D150*
X1456200Y5831200D3*
D148*
Y5731200D3*
D150*
X856200Y2868700D3*
D148*
X756200D3*
D150*
X1281200Y5831200D3*
D148*
Y5731200D3*
D150*
X1106200D3*
D148*
Y5831200D3*
D150*
X856200Y3831200D3*
D148*
X756200D3*
D146*
X3868700Y2606200D3*
X3789960D3*
X3868700Y2527460D3*
X3789960D3*
X3868700Y2448720D3*
X3789960D3*
X3868700Y2369980D3*
X3789960D3*
X3868700Y2291239D3*
X3789960D3*
X3868700Y1768700D3*
X3789960D3*
X3868700Y1689960D3*
X3789960D3*
X3868700Y1611220D3*
X3789960D3*
X3868700Y1532480D3*
X3789960D3*
X3868700Y1453739D3*
X3789960D3*
X793700Y2143700D3*
X872440D3*
X793700Y2222440D3*
X872440D3*
X793700Y2301180D3*
X872440D3*
X793700Y2379920D3*
X872440D3*
X793700Y2458661D3*
X872440D3*
X3868700Y1206200D3*
X3789960D3*
X3868700Y1127460D3*
X3789960D3*
X3868700Y1048720D3*
X3789960D3*
X3868700Y969980D3*
X3789960D3*
X3868700Y891239D3*
X3789960D3*
D150*
X3031200Y2162449D3*
D148*
X3131200D3*
X3031200Y2062449D3*
X3131200D3*
D150*
X1743700Y2293700D3*
D148*
X1643700D3*
X1743700Y2393700D3*
X1643700D3*
X1743700Y2493700D3*
X1643700D3*
D150*
X2593700Y712449D3*
D148*
X2493700D3*
X2593700Y812449D3*
X2493700D3*
D150*
X1643700Y2093700D3*
D148*
X1743700D3*
X1643700Y1993700D3*
X1743700D3*
X1643700Y1893700D3*
X1743700D3*
X1643700Y1793700D3*
X1743700D3*
D138*
X3856200Y5106200D3*
Y3818700D3*
X1243700Y4493700D3*
X2090575Y4496825D3*
X2940575Y4493700D3*
G36*
X1131200Y4612451D2*
X1362449D1*
Y4368700D1*
X1131200D1*
Y4612451D1*
G37*
G36*
X1974951Y4618701D2*
X2206200D1*
Y4374951D1*
X1974951D1*
Y4618701D1*
G37*
G36*
X2824951D2*
X3056200D1*
Y4374951D1*
X2824951D1*
Y4618701D1*
G37*
D24*
X1484325Y4240575D3*
D25*
X2331200Y4237451D3*
D24*
X3184325Y4234325D3*
D26*
X3856199Y3818701D3*
M02*
