G04 DipTrace 3.3.1.3*
G04 Top.gbr*
%MOIN*%
G04 #@! TF.FileFunction,Copper,L1,Top*
G04 #@! TF.Part,Single*
G04 #@! TA.AperFunction,Conductor*
%ADD13C,0.04*%
%ADD14C,0.02*%
%ADD15C,0.015748*%
%ADD16C,0.01*%
%ADD17C,0.006*%
%ADD18C,0.037402*%
%ADD19C,0.03937*%
%ADD20C,0.016535*%
%ADD21C,0.015*%
%ADD22C,0.016*%
G04 #@! TA.AperFunction,CopperBalancing*
%ADD23C,0.025*%
G04 #@! TA.AperFunction,ViaPad*
%ADD25C,0.15*%
%ADD28R,0.125984X0.125984*%
%ADD29R,0.15748X0.15748*%
%ADD30R,0.03937X0.043307*%
%ADD31R,0.043307X0.03937*%
%ADD32R,0.070866X0.062992*%
%ADD33R,0.059055X0.051181*%
%ADD34R,0.062992X0.070866*%
%ADD36R,0.098425X0.248031*%
%ADD38R,0.070866X0.173228*%
%ADD39R,0.074803X0.267717*%
%ADD40R,0.051181X0.059055*%
%ADD42R,0.064961X0.122047*%
%ADD44R,0.064961X0.129921*%
%ADD46R,0.129921X0.064961*%
%ADD47R,0.15X0.167*%
G04 #@! TA.AperFunction,ComponentPad*
%ADD48R,0.066929X0.066929*%
%ADD49C,0.066929*%
%ADD52C,0.05437*%
%ADD54R,0.109843X0.029134*%
%ADD55R,0.159449X0.216535*%
%ADD56R,0.216535X0.159449*%
G04 #@! TA.AperFunction,ComponentPad*
%ADD57R,0.2X0.2*%
%ADD58R,0.016X0.04*%
%ADD59R,0.2X0.18*%
%ADD60R,0.04X0.016*%
%ADD61R,0.18X0.2*%
%ADD63R,0.066929X0.031496*%
%ADD65R,0.05315X0.013386*%
%ADD66R,0.013386X0.05315*%
%ADD67R,0.015748X0.070866*%
%ADD69R,0.070079X0.016535*%
%ADD70R,0.11811X0.122047*%
%ADD72R,0.084646X0.037402*%
%ADD73R,0.084646X0.127953*%
%ADD75R,0.016535X0.070079*%
%ADD76R,0.122047X0.11811*%
%ADD78R,0.023622X0.043307*%
%ADD79R,0.019685X0.062992*%
%ADD80R,0.035433X0.023622*%
%ADD81R,0.07874X0.074803*%
%ADD82R,0.074803X0.043307*%
%ADD83R,0.094488X0.074803*%
G04 #@! TA.AperFunction,ViaPad*
%ADD84C,0.045*%
%ADD85C,0.055*%
%FSLAX26Y26*%
G04*
G70*
G90*
G75*
G01*
G04 Top*
%LPD*%
X1456200Y5831200D2*
D13*
X1281200D1*
X1106200D1*
X1281200D2*
D14*
Y5943700D1*
X1193700Y6031200D1*
X556200D1*
X456200Y5931200D1*
Y2781200D1*
X518700Y2718700D1*
X1718700D1*
X1968700Y2468700D1*
X2112449D1*
X2381200D1*
X2410334Y2497834D1*
Y2501613D1*
D15*
Y2547046D1*
Y2592480D1*
D16*
Y2772834D1*
X2456200Y2818700D1*
X1814271Y5881200D2*
D17*
Y5563877D1*
X1806594Y5556200D1*
D13*
X1631200D1*
X1568700D1*
X1539205Y5526705D1*
X1381200Y5368700D1*
Y5356200D1*
X1456200Y5731200D2*
Y5609710D1*
X1539205Y5526705D1*
X1581200Y5751771D2*
D17*
X1476771D1*
X1456200Y5731200D1*
X1768700Y3206200D2*
Y3043700D1*
X1618700Y2987401D2*
X1624999Y2993700D1*
X1718700D1*
X1768700Y3043700D1*
X2618700Y3206200D2*
Y3043700D1*
X2562401Y2987401D1*
X2468700D1*
X3468700Y3206200D2*
Y3043700D1*
Y3018700D1*
X3437401Y2987401D1*
X3318700D1*
D14*
Y2856200D1*
X3206200Y2743700D1*
X3131200D1*
X1918700Y2656200D2*
X1768700Y2806200D1*
X1618700D1*
X1212451D1*
X1237449Y2824951D1*
Y2806200D1*
X1156200D1*
X1031200Y2931200D1*
Y3656200D1*
X856200Y3831200D1*
X1618700Y2987401D2*
Y2806200D1*
X2468700Y2987401D2*
X2512401D1*
X2131200Y1893700D2*
D17*
X2206200D1*
X2218405Y1881495D1*
Y1856495D1*
X2393700Y1993700D2*
X2415255Y1972145D1*
Y1856495D1*
X2593700Y1993700D2*
X2612106Y1975294D1*
Y1856495D1*
X2843700Y1993700D2*
X2868011Y1969389D1*
Y1856495D1*
X2981200Y1703936D2*
Y1723621D1*
X3054872D1*
X3106200Y1774949D1*
X2506200Y2101771D2*
X2451771D1*
X2393700Y2043700D1*
Y1993700D1*
X2144586Y1566141D2*
X2028641D1*
X2006200Y1543700D1*
X2144586Y1349606D2*
X2024606D1*
X2006200Y1331200D1*
X1893700D1*
X2144586Y1093700D2*
X2043700D1*
X2006200Y1056200D1*
X3106200Y1418700D2*
X3093700D1*
X3083661Y1408661D1*
X2981200D1*
X2454625Y1019881D2*
Y982775D1*
X2493700Y943700D1*
Y906200D1*
X2651476Y1019881D2*
Y967175D1*
X2649949Y965649D1*
Y906200D1*
X2918700D2*
Y956200D1*
X2907381Y967519D1*
Y1019881D1*
X2887696D1*
X3143700Y912449D2*
X3087451D1*
X2887696Y1112204D1*
X2831200Y1168700D1*
X2887696Y1019881D2*
Y1112204D1*
X2981200Y1408661D2*
X2883661D1*
X2881200Y1406200D1*
X2868011Y1856495D2*
Y1787451D1*
X2799949D1*
X2612106Y1856495D2*
Y1749606D1*
X2606200Y1743700D1*
X2415255Y1856495D2*
Y1772145D1*
X2418700Y1768700D1*
X2218405Y1856495D2*
Y1781495D1*
X2144586Y1566141D2*
X2227510D1*
X2231200Y1562451D1*
X2144586Y1349606D2*
X2243356D1*
X2144586Y1093700D2*
X2212449D1*
X2256200D1*
X2454625Y1019881D2*
Y1129625D1*
X2456200Y1131200D1*
X2651476Y1019881D2*
Y1126476D1*
X2656200Y1131200D1*
X2981200Y1703936D2*
X2883464D1*
X2881200Y1706200D1*
X2831200D1*
X3106200Y1774949D2*
X3193700D1*
X3231199D1*
X3249949Y1793700D1*
X3299949D1*
X3681200Y1868700D2*
X3868700D1*
Y1866271D1*
Y1768700D1*
X2981200Y1664566D2*
X2933315D1*
X2918700Y1649951D1*
Y1593700D1*
X2881200Y1556200D1*
X3818700Y2143700D2*
X3839271D1*
X3868700Y2114271D1*
Y1868700D1*
X3299949Y1793700D2*
Y1862451D1*
X4056200Y1949951D2*
Y1899951D1*
X4022520Y1866271D1*
X3868700D1*
X3643700Y1716880D2*
Y1831200D1*
X3681200Y1868700D1*
X3643700Y1579380D2*
X3626770D1*
X3612449Y1593700D1*
X3581200D1*
X3593700Y1606200D1*
X3681200Y1306200D2*
X3768700D1*
X3868700Y1206200D1*
X2281200Y1493700D2*
D14*
Y1518700D1*
X2293700Y1531200D1*
X3806200Y2916880D2*
D17*
X3906200D1*
X3958020D1*
X3987449Y2887451D1*
Y2243700D1*
X3937449Y2193700D1*
X3837451D1*
X3818700Y2174949D1*
Y2143700D1*
X1537449Y831200D2*
X1418699D1*
X1412449Y824951D1*
X2212449Y1093700D2*
X2156200Y1037451D1*
Y874951D1*
X2118700Y837451D1*
X1970962D1*
X1898129D1*
X1970962D2*
Y877213D1*
X1974949Y881200D1*
Y768700D2*
X1898129D1*
X1974949Y693700D2*
X1898129D1*
Y699951D1*
X1974949Y599949D2*
X1943701D1*
X1912451Y631200D1*
X1898129D1*
X1412449Y893700D2*
Y824951D1*
X781200Y4606594D2*
X1026771Y4852165D1*
Y5381200D1*
X781200Y4606594D2*
D13*
X906200Y4481594D1*
Y4356200D1*
Y4081200D1*
X756200Y3931200D1*
Y3831200D1*
X785629Y4356200D2*
D17*
X793700D1*
X906200D1*
X1518700Y3668700D2*
D14*
Y3543700D1*
X1543700Y3518700D1*
Y3443700D1*
X2368700Y3668700D2*
Y3543700D1*
X2393700Y3518700D1*
Y3443700D1*
X3218700Y3668700D2*
Y3543700D1*
X3243700Y3518700D1*
Y3443700D1*
X3868700Y2606200D2*
Y2656200D1*
X3806200Y2718700D1*
X3681200D1*
X1543700Y3443700D2*
X1481200D1*
X1443700Y3406200D1*
Y3181200D1*
X1381200Y3118700D1*
X1331200D1*
X1168700Y2956200D1*
X3243700Y3443700D2*
X3181200D1*
X3143700Y3406200D1*
Y3181200D1*
X3081200Y3118700D1*
X3006200D1*
X2968700Y3081200D1*
Y2618700D1*
X2956200Y2606200D1*
X2156200D2*
X1881994D1*
X1793700Y2694494D1*
X1799553Y2700347D1*
X1731200Y2768700D1*
X956200D1*
X856200Y2868700D1*
X2393700Y3443700D2*
X2318700D1*
X2281200Y3406200D1*
Y3181200D1*
X2218700Y3118700D1*
X2181200D1*
X1993700Y2931200D1*
X1793700Y2706200D2*
Y2694494D1*
X993700Y2056200D2*
D16*
X831200D1*
X793700Y2093700D1*
Y2143700D1*
X931200Y3471751D2*
D18*
X868877D1*
D13*
X702854D1*
X693700D1*
Y3118700D1*
Y2931200D1*
X756200Y2868700D1*
X2547342Y5646651D2*
D17*
X2502302D1*
X2492754Y5656200D1*
Y5717754D1*
X2531200Y5756200D1*
Y5881200D1*
X2456200Y5956200D1*
X2123129D1*
X2048129Y5881200D1*
X2010629Y5918700D1*
X1668700D1*
X1631200Y5881200D1*
Y5818700D1*
Y5793700D1*
X1673129Y5751771D1*
X1681200D1*
X1581200Y5818700D2*
X1631200D1*
X3331200Y5356200D2*
D13*
X3231200Y5456200D1*
Y5531200D1*
X3331200Y5356200D2*
Y5456200D1*
X3406200Y5531200D1*
X3556200D1*
X3231200D2*
X3193917Y5568483D1*
X3131200D1*
D19*
X2964665D1*
Y5631200D1*
Y5571459D1*
X2968700D1*
D13*
Y5508385D1*
D19*
X2964665D1*
Y5481200D1*
Y5571459D2*
D14*
X2836239D1*
D20*
Y5569880D1*
X2781200D1*
X2964665Y5831200D2*
D14*
X3581200D1*
X3586549Y5825851D1*
X3631200Y5781200D1*
Y5606200D1*
X3556200Y5531200D1*
X3586549Y5825851D2*
X4011549D1*
X4031200Y5806200D1*
Y5723129D1*
X2547342Y5544289D2*
D20*
X2502302D1*
D14*
X2494289D1*
X2448129Y5498129D1*
Y5481200D1*
X2547342Y5569880D2*
D20*
Y5544289D1*
X2448129Y5481200D2*
D19*
Y5441515D1*
D13*
X2431200Y5424586D1*
X2312814D1*
X2206200Y5531200D1*
Y5556200D1*
Y5881200D2*
D17*
Y5556200D1*
X623129Y4356200D2*
X531200Y4448129D1*
Y4840154D1*
Y5293700D1*
X581200Y5343700D1*
X768700D1*
X778249Y5353249D1*
Y5397342D1*
X1026771Y5481200D2*
X1006200D1*
X993700Y5468700D1*
Y4893700D1*
X940154Y4840154D1*
X531200D1*
X718700Y4356200D2*
X623129D1*
X1106200Y5731200D2*
D13*
X1038609D1*
X1006200D1*
X985654Y5751746D1*
D19*
X956200Y5781200D1*
D14*
X868700Y5693700D1*
Y5689919D1*
X855020Y5676239D1*
D20*
Y5631200D1*
X956200Y5781200D2*
D14*
X835629D1*
X631200Y5856200D2*
D17*
Y5893700D1*
X681200Y5943700D1*
X943700D1*
X1038609Y5848791D1*
Y5731200D1*
X1031200Y5581200D2*
X968700Y5518700D1*
Y5356200D1*
X943700Y5331200D1*
X906200D1*
D14*
X880611Y5356789D1*
D17*
Y5397342D1*
X855020D2*
X880611D1*
X906200Y5273129D2*
D14*
Y5331200D1*
X855020Y5397342D2*
D20*
X880611D1*
X843700Y5068700D2*
D14*
X781200Y5006200D1*
X906200Y5273129D2*
X939271D1*
X956200Y5256200D1*
Y5043700D1*
X918700Y5006200D1*
X781200D1*
X931200Y3562302D2*
Y3631200D1*
X881200Y3681200D1*
X606200D1*
X506200Y3781200D1*
Y5893700D1*
X593700Y5981200D1*
X1143700D1*
X1193700Y5931200D1*
X2118700Y3668700D2*
D19*
X2089246Y3698154D1*
D13*
X2018700Y3768700D1*
Y4431200D1*
X2454625Y1856495D2*
D17*
Y1929625D1*
X2468700Y1943700D1*
X2431200Y2156200D2*
Y2218700D1*
X2384743Y2265157D1*
Y2318700D1*
X2468700Y3093700D2*
Y3056200D1*
X2431200Y3018700D1*
Y2968700D1*
X2418700Y2956200D1*
X2243700D1*
Y2943700D1*
X1360629Y2443700D2*
X1439271D1*
X2243700Y2943700D2*
Y2918700D1*
X2231200Y2906200D1*
X2068700D1*
X1406200Y2481200D2*
Y2476771D1*
X1439271Y2443700D1*
X2756200Y2168700D2*
X2731200Y2143700D1*
Y1857480D1*
X2730216Y1856495D1*
X2474310D2*
Y1899310D1*
X2531200Y1956200D1*
X2518700Y1968700D1*
X2359153Y2318700D2*
Y2359497D1*
X2349949Y2368700D1*
X2218699D1*
X2199949Y2349951D1*
Y2237451D1*
X2149949Y2187451D1*
X1606200D1*
X1562449Y2143700D1*
Y1812451D1*
X1581200Y1793700D1*
X1643700D1*
X2968700Y3668700D2*
D19*
X2939246Y3698154D1*
D13*
X2868700Y3768700D1*
Y4418700D1*
X2395570Y1019881D2*
D17*
Y648081D1*
X2406200Y637451D1*
X3674951D1*
X3699949Y662449D1*
Y1099949D1*
X3727460Y1127460D1*
X3789960D1*
X3856200Y5431200D2*
D13*
Y5106200D1*
X2968602Y5356200D2*
Y5089600D1*
X3168700Y4889502D1*
X1256200Y5106200D2*
X1406200D1*
X1468700Y5043700D1*
Y4889502D1*
X3806200Y4693700D2*
Y5106200D1*
X3856200D1*
X3831200Y3164861D2*
X3797539D1*
X3643700Y3318700D1*
Y4531200D1*
X3806200Y4693700D1*
X2375885Y1856495D2*
D17*
Y1924015D1*
X2306200Y1993700D1*
Y2093700D1*
X2393700D2*
Y2218700D1*
X2333562Y2278838D1*
Y2318700D1*
X3318700Y3093700D2*
Y3056200D1*
X3281200Y3018700D1*
Y2968700D1*
X3256200Y2943700D1*
X3093700D1*
Y2656200D1*
X2893700Y2456200D1*
X2762449Y2237449D2*
X2710531Y2185531D1*
Y1856495D1*
X1360629Y2343700D2*
X1443700D1*
X1360629Y2298129D2*
D16*
Y2343700D1*
X2506200Y2168700D2*
D17*
Y2206200D1*
X2435924Y2276476D1*
Y2318700D1*
Y2370225D1*
X2424949Y2381200D1*
X2206200D1*
X2181200Y2356200D1*
Y2237451D1*
X2143700Y2199951D1*
X1599951D1*
X1543700Y2143700D1*
Y1774949D1*
X1574949Y1743700D1*
X1693700D1*
X1743700Y1793700D1*
X2297145Y1856495D2*
Y1896506D1*
X2181200Y2012451D1*
Y2049949D1*
X2137449Y2093700D1*
X1949951D1*
X1831200Y1974949D1*
Y1818700D1*
X1806200Y1793700D1*
X1743700D1*
X2307972Y2318700D2*
Y2279428D1*
X2356200Y2231200D1*
Y2168700D1*
Y1968700D1*
X2395570Y1929330D1*
Y1856495D1*
X2981200Y1625196D2*
X3050196D1*
X3068700Y1643700D1*
X3337451D1*
X3381200Y1687449D1*
Y1943700D1*
X3681200Y2243700D1*
X3887449D1*
X3918700Y2274951D1*
Y2398720D1*
X3868700Y2448720D1*
X3806200Y2849951D2*
Y2787449D1*
X2144586Y1507086D2*
X1430314D1*
X1362449Y1574951D1*
Y1949951D1*
X1299949Y2012451D1*
X799949D1*
X731200Y2081200D1*
Y2187449D1*
X766191Y2222440D1*
X793700D1*
X2144586Y1487401D2*
X1418750D1*
X1343700Y1562451D1*
Y1943700D1*
X1287449Y1999951D1*
X787449D1*
X718700Y2068700D1*
Y2274949D1*
X744931Y2301180D1*
X793700D1*
X2144586Y1467716D2*
X1407184D1*
X1324949Y1549951D1*
Y1937451D1*
X1281200Y1981200D1*
X781200D1*
X706200Y2056200D1*
Y2349949D1*
X736171Y2379920D1*
X793700D1*
X2144586Y1448031D2*
X1395620D1*
X1306200Y1537451D1*
Y1931200D1*
X1274949Y1962451D1*
X774949D1*
X693700Y2043700D1*
Y2437449D1*
X714911Y2458661D1*
X793700D1*
X1268700Y3668700D2*
D13*
X1168700Y3768700D1*
Y4418700D1*
X2282381Y2318700D2*
D17*
X2281200D1*
Y2256200D1*
X2293700Y2243700D1*
Y2168700D1*
X2336515Y1856495D2*
Y1900885D1*
X2218700Y2018700D1*
Y2168700D1*
X2356200Y1019881D2*
Y631200D1*
X2387449Y599951D1*
X3712451D1*
X3737449Y624949D1*
Y943699D1*
X3763730Y969980D1*
X3789960D1*
X3868700Y1611220D2*
Y1606200D1*
X3924949Y1549951D1*
Y1412451D1*
X3887449Y1374951D1*
X3512451D1*
X3499949Y1362449D1*
Y924951D1*
X3437449Y862451D1*
X2881199D1*
X2868011Y875638D1*
Y1019881D1*
X2336515D2*
Y625885D1*
X2381200Y581200D1*
X3756200D1*
X3789960Y614960D1*
Y891239D1*
X1618700Y3093700D2*
Y3043700D1*
X1581200Y3006200D1*
Y2968700D1*
X1556200Y2943700D1*
X1468700D1*
X1393700D1*
X1360629Y2543700D2*
X1439271D1*
X1456200Y2631200D2*
X1431200Y2606200D1*
X1381200D1*
X1360629Y2585629D1*
Y2543700D1*
X1743700Y2393700D2*
D16*
X1693700Y2443700D1*
Y2593700D1*
X1656200Y2631200D1*
X1456200D1*
X2924949Y2281200D2*
D17*
Y2218699D1*
X2768700Y2062449D1*
Y1937449D1*
X2808956Y1897193D1*
Y1856495D1*
X2256791Y2318700D2*
Y2269291D1*
X2156200Y2168700D1*
X1618700D1*
X1581200Y2131200D1*
Y2031200D1*
X1618700Y1993700D1*
X1643700D1*
X2256791Y2318700D2*
Y2018109D1*
X2356200Y1918700D1*
Y1856495D1*
X3031200Y2062449D2*
X2837449D1*
X2806200Y2031200D1*
Y1962449D1*
X2848326Y1920323D1*
Y1856495D1*
X3131200Y2162449D2*
X3124951D1*
X3074949Y2212451D1*
X2949949D1*
X2787449Y2049951D1*
Y1949951D1*
X2828641Y1908759D1*
Y1856495D1*
X2410334Y2318700D2*
Y2270817D1*
X2468700Y2212451D1*
Y2149951D1*
X2481200Y2137451D1*
X2612449D1*
X2624949Y2124951D1*
Y2068700D1*
X2587449Y2031200D1*
X2568700D1*
X2556200Y2018700D1*
Y1937449D1*
X2574949Y1918700D1*
Y1858709D1*
X2572735Y1856495D1*
X1618503Y3206200D2*
Y3168503D1*
X1581298Y3131298D1*
Y3093700D1*
X1393700Y3043700D2*
X1568700D1*
X1581298Y3056298D1*
Y3093700D1*
X1618503Y3443700D2*
X1681200D1*
Y3143503D2*
X1618503Y3206200D1*
X1581692Y3668700D2*
D14*
X1582294Y3668098D1*
Y3587088D1*
X1681200Y3143503D2*
D17*
X1706200Y3118503D1*
Y3048129D1*
X1701771Y3043700D1*
X1393700D2*
X1443700D1*
Y3106200D1*
X2468700Y3206200D2*
Y3168700D1*
X2431298Y3131298D1*
Y3093700D1*
X2243700Y3031200D2*
X2406200D1*
X2431298Y3056298D1*
Y3093700D1*
X2468503Y3443700D2*
X2537451D1*
X2468700Y3206200D2*
X2518700Y3156200D1*
X2551771Y3123129D1*
Y3043700D1*
X2431692Y3668700D2*
D14*
X2431200Y3668208D1*
Y3593701D1*
X3281298Y3093700D2*
D17*
Y3118798D1*
X3318503Y3156003D1*
Y3206200D1*
X3281692Y3668700D2*
D14*
Y3580708D1*
X3318503Y3206200D2*
D17*
X3318700D1*
X3368700Y3156200D1*
X3406200Y3118700D1*
Y3048129D1*
X3401771Y3043700D1*
X2243700Y3031200D2*
X2293700D1*
Y3106200D1*
X3318503Y3443700D2*
X3381200D1*
X3143700Y3106200D2*
Y3031200D1*
X3093700D1*
X2563877Y2547054D2*
D16*
Y2556200D1*
X2606200D1*
X3556200Y5700491D2*
D13*
X3473588D1*
X3231200D1*
X3200491Y5731200D1*
X3119792D1*
X3006318D1*
D19*
X2964665D1*
X3473588Y5700491D2*
D13*
Y5631200D1*
X3119792Y5731200D2*
X3131200Y5719792D1*
Y5656200D1*
X2893798Y5356200D2*
Y5437578D1*
X2897735Y5441515D1*
D19*
Y5481200D1*
D14*
X2873739D1*
X2836239Y5518700D1*
X2781200D1*
X2664271Y5595470D2*
D13*
Y5464271D1*
X2836239Y5518700D2*
D14*
Y5486239D1*
D13*
X2814271Y5464271D1*
X2781200Y5544289D2*
D20*
Y5518700D1*
X2547342Y5672242D2*
X2592381D1*
D14*
X2622242D1*
X2664271Y5630213D1*
Y5595470D1*
X2726771Y5768700D2*
D17*
X2664271Y5706200D1*
D14*
Y5595470D1*
Y5723129D1*
X2631200Y5756200D1*
X2456003Y5781200D2*
X2456200D1*
Y5856200D1*
X1681200Y5818700D2*
D17*
X1731200D1*
X1631200Y5666436D2*
D14*
X1666436D1*
X1731200Y5731200D1*
Y5818700D1*
X1381200Y5560924D2*
D13*
X1301476D1*
X880611Y5631200D2*
D20*
X906200D1*
X880611D2*
Y5586161D1*
D14*
Y5514271D1*
X829430D1*
X906200Y5631200D2*
D20*
X924468D1*
X956200Y5848129D2*
D14*
Y5856200D1*
X906200Y5906200D1*
X789271D1*
X731200Y5848129D1*
X829430Y5514271D2*
D13*
X752658D1*
X693700D1*
X627165Y5560235D2*
D17*
X647735D1*
X693700Y5514271D1*
X752658Y5397342D2*
Y5514271D1*
X1102657Y5106200D2*
D14*
X1106200Y5109743D1*
Y5281200D1*
X647735Y5189665D2*
D17*
X643700Y5193700D1*
X581200D1*
X556200Y4356200D2*
Y4168700D1*
X643700Y4081200D1*
X701476D1*
D13*
X706200Y4085924D1*
Y4168700D1*
X1016436Y4356200D2*
D17*
X1018700D1*
Y4481200D1*
X3806200Y4181889D2*
D13*
Y3868700D1*
X3856200Y3818700D1*
X3831200Y3456200D2*
Y3793700D1*
X3856200Y3818700D1*
X898424Y3118700D2*
Y3223507D1*
Y3309724D1*
X931200Y3342499D1*
D18*
Y3381200D1*
X2112449Y2393897D2*
D14*
X2056003D1*
X2359153Y2547046D2*
D17*
Y2703247D1*
X2343700Y2718700D1*
X2563877Y2318700D2*
X2618700D1*
X3681200Y2651771D2*
D14*
Y2643700D1*
X3718700Y2606200D1*
X3789960D1*
X898424Y3223507D2*
D13*
X843700D1*
X2356200Y2885629D2*
D14*
X2456200D1*
X2008464Y2006200D2*
D17*
X2064271Y1950393D1*
Y1893700D1*
X2008464Y2006200D2*
X2056200Y1958464D1*
Y1943700D1*
X2460629Y1993700D2*
X2434940Y1968011D1*
Y1856495D1*
X2660629Y1993700D2*
X2631791Y1964861D1*
Y1856495D1*
X2910629Y1993700D2*
X2887696Y1970767D1*
Y1856495D1*
X2981200Y1684251D2*
X3082431D1*
X3106200Y1708020D1*
X2460629Y1993700D2*
X2456200Y1998129D1*
Y2043700D1*
X2144586Y1585826D2*
X2031003D1*
X2006200Y1610629D1*
X2144586Y1369291D2*
X2035039D1*
X2006200Y1398129D1*
X1901574D1*
X1893700Y1406003D1*
X2144586Y1113385D2*
X2015944D1*
X2006200Y1123129D1*
X1893700Y1008464D2*
X1895964D1*
X1943701Y1056201D1*
X1941486Y1058415D1*
X2006200Y1123129D1*
X3356200Y1487451D2*
Y1456200D1*
Y1424949D1*
X3368700Y1245275D2*
Y1195275D1*
Y1145275D2*
Y1195275D1*
Y1145275D2*
Y1132777D1*
X3323373Y1087451D1*
X3237449D1*
X3253936Y912449D2*
X3331200D1*
X2434940Y1019881D2*
Y972440D1*
X2426771Y964271D1*
Y906200D1*
X2631791Y1019881D2*
Y969291D1*
X2583020Y920520D1*
Y906200D1*
X2985629D2*
Y951771D1*
X2981200Y956200D1*
Y1388976D2*
X3068995D1*
X3106200Y1351771D1*
X2434940Y1856495D2*
Y1777460D1*
X2468700Y1743700D1*
X2887696Y1856495D2*
Y1750196D1*
X2631791Y1856495D2*
Y1768109D1*
X2656200Y1743700D1*
X2981200Y1684251D2*
X2903002D1*
X2824951Y1606200D1*
X2981200Y1388976D2*
X2895225D1*
X2874949Y1368700D1*
X2631791Y1019881D2*
Y1105611D1*
X2612451Y1124951D1*
X2434940Y1019881D2*
Y1102459D1*
X2412449Y1124949D1*
X2144586Y1113385D2*
X2225884D1*
X2249949Y1137451D1*
X2144586Y1369291D2*
X2231789D1*
X2249949Y1387451D1*
X2144586Y1585826D2*
X2235825D1*
X2249949Y1599951D1*
X3106200Y1708020D2*
X3193700D1*
X3299949Y1718897D2*
X3256397D1*
X3243700Y1706200D1*
X3241880Y1708020D1*
X3193700D1*
X3681200Y1801771D2*
X3756889D1*
X3789960Y1768700D1*
X3356200Y1424949D2*
D3*
Y1456200D2*
X3312449D1*
X3687449Y2106200D2*
Y2074951D1*
X3706200Y2056200D1*
X3818700Y1945520D2*
X3793701D1*
X3706200Y2033022D1*
Y2056200D1*
X4056200Y2148129D2*
X3960629D1*
X3918700Y2106200D1*
X3931200D1*
Y2049951D1*
X3031200Y2162449D2*
X3131200Y2062449D1*
Y2037451D1*
X3087449Y1993700D1*
X2910629D1*
X3681200Y1239271D2*
X3756889D1*
X3789960Y1206200D1*
X2774949Y831200D2*
X2731199Y787449D1*
X2668700D1*
X2593700Y712449D1*
X3789960Y1768700D2*
D3*
X4031200Y5506200D2*
D14*
Y5406200D1*
X2356200Y2885629D2*
D16*
X2323129D1*
X2306200Y2868700D1*
Y2756200D1*
X2343700Y2718700D1*
X993700Y2123129D2*
X893011D1*
X872440Y2143700D1*
X1439271Y2243700D2*
X1356200D1*
Y2206200D1*
X1206200Y2243700D2*
X1439271D1*
X2593700Y2093700D2*
D17*
X2568700D1*
X2518700Y2043700D1*
X2456200D1*
X3037449Y1924951D2*
D14*
Y1924949D1*
X2956200Y1843700D1*
X1537449Y781200D2*
D17*
X1456199D1*
X1433020Y758022D1*
X1412449D1*
X1537449Y781200D2*
Y731200D1*
X1412449Y758022D2*
Y662449D1*
Y656200D1*
X1437449Y631200D1*
X1537449D1*
X1412449Y662449D2*
X1431200Y681200D1*
X3593700Y2749951D2*
D14*
Y2587451D1*
X774923Y1393650D2*
D17*
X824999D1*
X2981200Y1743306D2*
X3018306D1*
X3124951Y1849951D1*
X3199951D1*
X3719980Y2369980D1*
X3789960D1*
Y2448720D2*
X3748718D1*
X3174949Y1874951D1*
X3124951D1*
X3012991Y1762991D1*
X2981200D1*
X3789960Y2527460D2*
X3783710D1*
X3156201Y1899951D1*
X3098474D1*
X2981200Y1782676D1*
X3543700Y1514271D2*
X3491878D1*
X3612449Y1318700D2*
Y918700D1*
X3499949Y806200D1*
X2831200D1*
X2808956Y828444D1*
Y1019881D1*
X3543700Y1651771D2*
X3495520D1*
X3556200Y1318700D2*
Y906201D1*
X3474949Y824951D1*
X2862449D1*
X2828641Y858759D1*
Y1019881D1*
X1506200Y2543700D2*
Y2443700D1*
Y2348129D1*
X1510629Y2343700D1*
Y2248129D1*
X1506200Y2243700D1*
X1643700Y2293700D2*
D16*
X1593700Y2343700D1*
X1510629D1*
X2981200Y1349606D2*
D17*
X3012794D1*
X3062449Y1299951D1*
X3112448D1*
X3131199Y1281200D1*
X1697686Y681200D2*
X1756200D1*
X1806200Y631200D1*
X1831200D1*
Y649951D1*
X1843700Y662451D1*
X1924948D1*
X1937449Y649949D1*
X2137449D1*
X2238090Y750590D1*
Y1019881D1*
X3868700Y1689960D2*
X3916191D1*
X3943700Y1662451D1*
Y1387451D1*
X3912449Y1356200D1*
X3531200D1*
X3518700Y1343700D1*
Y918700D1*
X3443700Y843700D1*
X2881200D1*
X2848326Y876574D1*
Y1019881D1*
X3789960Y1532480D2*
X3744980D1*
X3668700Y1456200D1*
X3462449D1*
X3424949Y1418700D1*
Y1106199D1*
X3306200Y987449D1*
X3181201D1*
X3015896Y1152755D1*
X2981200D1*
X3868700Y1453739D2*
X3866238D1*
X3824949Y1412451D1*
X3481200D1*
X3462449Y1393700D1*
Y1099949D1*
X3324949Y962449D1*
X3162451D1*
X3011515Y1113385D1*
X2981200D1*
X3789960Y1453739D2*
X3703738D1*
X3687449Y1437451D1*
X3474951D1*
X3443700Y1406200D1*
Y1106200D1*
X3312449Y974949D1*
X3168701D1*
X3010581Y1133070D1*
X2981200D1*
X2375885Y1019881D2*
Y636515D1*
X2393700Y618700D1*
X3687449D1*
X3718700Y649951D1*
Y1018700D1*
X3748720Y1048720D1*
X3789960D1*
X1962451Y1806200D2*
X1874949D1*
X1762449Y1693700D1*
X1543700D1*
X1474949Y1762451D1*
Y2056200D1*
X1387449Y2143700D1*
X1137449D1*
X1024949Y2256200D1*
Y2337451D1*
X982480Y2379920D1*
X872440D1*
X3385629Y4718700D2*
D14*
X3393700D1*
X3518700Y4593700D1*
Y3343700D1*
X3568700Y3293700D1*
Y2881200D1*
X3037451Y2349951D1*
X2762451D1*
X2649951Y2237451D1*
X2512449D1*
D21*
X2487106Y2262794D1*
Y2273267D1*
D15*
Y2318700D1*
X3018700Y3318700D2*
D16*
Y3206200D1*
X2906200Y3093700D1*
X2818700D2*
Y2543700D1*
X2756200Y2481200D1*
X2556200D1*
X2461515Y2386515D1*
Y2318700D1*
X2512696D2*
Y2387696D1*
X2581200Y2456200D1*
X2806200D1*
X2865157Y2515157D1*
Y3318700D1*
D14*
Y3477657D1*
X2968700Y3581200D1*
Y3601771D1*
X3385629Y4618700D2*
X3481200Y4523129D1*
Y3306200D1*
X3531200Y3256200D1*
Y2918700D1*
X3018700Y2406200D1*
X2580354D1*
D21*
X2538287Y2364133D1*
D15*
Y2318700D1*
X2535629Y4618700D2*
D14*
X2643700Y4510629D1*
Y3318700D1*
X2693700Y3268700D1*
Y2831200D1*
X2512696Y2650196D1*
D21*
Y2592480D1*
D15*
Y2547046D1*
X2435924D2*
D16*
Y2723424D1*
X2506200Y2793700D1*
Y2818700D1*
X2568700Y2881200D1*
X2106200Y3118700D2*
X2168700Y3181200D1*
Y3318700D1*
X2535629Y4718700D2*
D14*
X2693700Y4560629D1*
Y3343700D1*
X2731200Y3306200D1*
Y2806200D1*
X2568700D2*
D21*
X2461515Y2699015D1*
Y2592480D1*
D15*
Y2547046D1*
X2118700Y3601771D2*
D14*
Y3581200D1*
X2015157Y3477657D1*
Y3318700D1*
X2487106Y2547046D2*
D16*
Y2662106D1*
X2643700Y2818700D1*
Y2881200D1*
X2593700Y2931200D1*
X2306200D1*
X2243700Y2868700D1*
X1981200D1*
X1943700Y2906200D1*
Y3068700D1*
X2015157Y3140157D1*
Y3318700D1*
X1685629Y4618700D2*
D14*
X1781200Y4523129D1*
Y3331200D1*
X1856200Y3256200D1*
Y2943700D1*
X2018700Y2781200D1*
X2218700D1*
X2333562Y2666338D1*
D21*
Y2592480D1*
D15*
Y2547046D1*
X1685629Y4718700D2*
D14*
X1831200Y4573129D1*
Y3356200D1*
X1906200Y3281200D1*
Y2981200D1*
X1849949Y2837451D2*
X1974999Y2712401D1*
X2199999D1*
X2282381Y2630019D1*
D21*
Y2592480D1*
D15*
Y2547046D1*
X2256791D2*
D16*
Y2618109D1*
X2206200Y2668700D1*
X1968700D1*
X1881200Y2756200D1*
X1868700D1*
X1768700Y2856200D1*
X1668700D1*
X1568700D2*
X1362451D1*
X1349951Y2868700D1*
X1143700D1*
X1081200Y2931200D1*
Y2968700D1*
X1318700Y3206200D1*
Y3318700D1*
X1268700Y3601771D2*
D14*
Y3581200D1*
X1165157Y3477657D1*
Y3318700D1*
X2307972Y2547046D2*
D16*
Y2641928D1*
X2206200Y2743700D1*
X2006200D1*
X1843700Y2906200D1*
X1718700D1*
X1518700Y2893700D2*
X1156200D1*
X1118700Y2931200D1*
Y2968700D1*
X1306200Y3156200D1*
X1368700D1*
X1381200Y3168700D1*
Y3489271D1*
X1268700Y3601771D1*
X3856200Y5682200D2*
D13*
X3681200Y5507200D1*
Y5431200D1*
X3606200Y5356200D1*
X3431200D1*
X1210629Y2543700D2*
D17*
X1293700D1*
X2384743Y2547046D2*
Y2790157D1*
X2356200Y2818700D1*
X1143700Y2543700D2*
Y2443700D1*
X1139665Y2439665D1*
Y2347735D1*
X1143700Y2343700D1*
X1139271Y2243700D2*
Y2339271D1*
X1143700Y2343700D1*
X2538287Y2547046D2*
D16*
Y2500787D1*
X2468700Y2431200D1*
X2231200D1*
X2143700Y2343700D1*
X2043700D1*
X1718700Y2668700D1*
X1181200D1*
X1143700Y2631200D1*
Y2543700D1*
X1206594Y2439665D2*
D17*
X1289665D1*
X1293700Y2443700D1*
Y2343700D2*
X1210629D1*
X2897735Y5831200D2*
X2856200Y5789665D1*
Y5656200D1*
X2821061Y5621061D1*
X2781200D1*
Y5646651D2*
X2821651D1*
X2831200Y5656200D1*
Y5731200D1*
X2793700Y5768700D1*
X2897735Y5731200D2*
Y5631200D1*
X2781200Y5595470D2*
X2862006D1*
X2897735Y5631200D1*
X2376771Y5581200D2*
Y5485629D1*
X2381200Y5481200D1*
X2547342Y5621061D2*
X2441339D1*
X2381200Y5681200D1*
Y5781200D1*
X2547342Y5595470D2*
X2457970D1*
X2443700Y5581200D1*
X2139271Y5881200D2*
Y5839271D1*
X2106200Y5806200D1*
X2006200D1*
X1981200Y5831200D1*
Y5881200D1*
X1881200D1*
X631200Y5789271D2*
Y5768700D1*
X681200Y5718700D1*
X768700D1*
X803839Y5683561D1*
Y5631200D1*
X781200Y5206200D2*
X906200D1*
X778249Y5631200D2*
Y5671651D1*
X768700Y5681200D1*
X681200D1*
X627165Y5627165D1*
X835629Y5848129D2*
D14*
X798129D1*
X731200Y5781200D1*
D17*
X743700D1*
X829430Y5695470D1*
Y5631200D1*
X647735Y5264468D2*
X701968Y5318700D1*
X781200D1*
X803839Y5341339D1*
Y5397342D1*
X781200Y5273129D2*
X829430Y5321359D1*
Y5397342D1*
X1098129Y5581200D2*
Y5485629D1*
X1093700Y5481200D1*
Y5381200D1*
X3206200Y1376033D2*
Y1393700D1*
X3143700Y1456200D1*
X3081200D1*
X3010629Y1526771D1*
X2981200D1*
X3356200Y1358020D2*
X3224213D1*
X3206200Y1376033D1*
X3106200Y1556200D2*
Y1549951D1*
X3193700D1*
X3206200Y1537451D1*
X3356200Y1554380D2*
X3316880D1*
X3299951Y1537451D1*
X3206200D1*
X3193700Y1243700D2*
Y1224951D1*
X3049949D1*
X3023720Y1251180D1*
X2981200D1*
X3193700Y1243700D2*
X3300196D1*
X3301771Y1245275D1*
X2774949Y898129D2*
Y937449D1*
X2789271Y951771D1*
Y1019881D1*
X2144586Y1133070D2*
X2066830D1*
X2043700Y1156200D1*
X1931200D1*
X1893700Y1118700D1*
X3106200Y1489271D2*
X3085629D1*
X3028444Y1546456D1*
X2981200D1*
X3193700Y1145275D2*
X3104625D1*
X3018405Y1231495D1*
X2981200D1*
X3301771Y1145275D2*
X3193700D1*
X2660629Y2093700D2*
X2681200D1*
X2693700Y2081200D1*
Y1912451D1*
X2690846Y1909596D1*
Y1856495D1*
X1962451Y1681200D2*
X1812449D1*
X1774949Y1643700D1*
X1512449D1*
X1424949Y1731200D1*
Y2043700D1*
X1362449Y2106200D1*
X1106200D1*
X989960Y2222440D1*
X872440D1*
X1962451Y1743700D2*
X1843699D1*
X1762449Y1662451D1*
X1531199D1*
X1449949Y1743700D1*
Y2049951D1*
X1374949Y2124951D1*
X1124949D1*
X999949Y2249951D1*
Y2268700D1*
X967469Y2301180D1*
X872440D1*
X4087449Y748129D2*
Y908710D1*
X3868700Y1127460D1*
X3987449Y748129D2*
Y929970D1*
X3868700Y1048720D1*
X3887449Y748129D2*
Y787451D1*
X3912449Y812451D1*
Y926230D1*
X3868700Y969980D1*
X3789960Y1689960D2*
X3683709D1*
X3643700Y1649951D1*
X3612449D1*
X3543700Y1718700D1*
X3789960Y1611220D2*
X3742469D1*
X3643700Y1512451D1*
X3612449D1*
X3543700Y1581200D1*
X1543897Y2987401D2*
X1537598Y2993700D1*
X1326771D1*
Y2943700D1*
Y3043700D2*
Y2943700D1*
X2176771Y3031200D2*
Y2987401D1*
Y2943700D1*
X2393897Y2987401D2*
X2176771D1*
X3026771Y3031200D2*
Y2987401D1*
Y2943700D1*
X3243897Y2987401D2*
X3026771D1*
X1644684Y3668700D2*
Y3567716D1*
X1731200Y3481200D1*
Y3368700D1*
X1693700Y3331200D1*
X1610629D1*
X2494684Y3668700D2*
Y3569684D1*
X2581200Y3483169D1*
Y3356200D1*
X2556200Y3331200D1*
X2460629D1*
X3344684Y3668700D2*
X3418700Y3594684D1*
Y3368700D1*
X3381200Y3331200D1*
X3310629D1*
X1618700Y4618700D2*
D14*
Y4586700D1*
D22*
Y4568700D1*
X2468700D2*
Y4586700D1*
D14*
Y4618700D1*
X3318700D2*
Y4586700D1*
D22*
Y4568700D1*
X1543700Y4729502D2*
X1561700D1*
D14*
X1572502Y4718700D1*
X1618700D1*
X2468700D2*
X2457898Y4729502D1*
X2411700D1*
D22*
X2393700D1*
X3318700Y4718700D2*
D14*
X3307898Y4729502D1*
X3261700D1*
D22*
X3243700D1*
X1543700Y3206200D2*
D17*
Y3093700D1*
X1543897D1*
X1543700Y3331200D2*
Y3268495D1*
Y3206200D1*
X1701771D2*
Y3248129D1*
X1681405Y3268495D1*
X1543700D1*
X2393700Y3331200D2*
Y3279313D1*
X2393897D1*
Y3206200D1*
Y3093700D1*
X2551771Y3206200D2*
Y3248129D1*
X2520587Y3279313D1*
X2393897D1*
X3243700Y3331200D2*
Y3280781D1*
Y3206200D1*
X3243897Y3206003D1*
Y3093700D1*
X3401771Y3206200D2*
Y3260629D1*
X3381619Y3280781D1*
X3243700D1*
X3687449Y1972342D2*
X3497342D1*
X3431200Y1906200D1*
Y1699949D1*
X3324951Y1593700D1*
X3081200D1*
X3056200Y1568700D1*
X2983759D1*
X2981200Y1566141D1*
X3818700Y2076771D2*
Y2044064D1*
Y2012449D1*
X3833022D1*
X3849949Y1995522D1*
Y1912449D1*
X3843700Y1906200D1*
X3753591D1*
X3687449Y1972342D1*
X3818700Y2044064D2*
X3774586D1*
X4087449Y1868700D2*
X4081199D1*
X3987449Y1774951D1*
Y1062451D1*
X4131200Y918700D1*
Y518701D1*
X4099949Y487451D1*
X1743699D1*
X1697686Y533464D1*
Y631200D1*
X2316830Y1019881D2*
Y614321D1*
X2368700Y562451D1*
X3812451D1*
X3843700Y593700D1*
Y881200D1*
X3858661D1*
X3868700Y891239D1*
X2144586Y1743306D2*
X2144192Y1743700D1*
X2029380D1*
X2144586Y1723621D2*
X2143256Y1724951D1*
X2106200D1*
X2062449Y1681200D1*
X2029380D1*
X2144586Y1782676D2*
X2143109Y1781200D1*
X2118700D1*
X2056200Y1843700D1*
X1881200D1*
X1756200Y1718700D1*
X1562449D1*
X1499949Y1781200D1*
Y2062451D1*
X1399949Y2162451D1*
X1149949D1*
X1062449Y2249951D1*
Y2399951D1*
X1003739Y2458661D1*
X872440D1*
X2144586Y1762991D2*
X2144045Y1762451D1*
X2106199D1*
X2062449Y1806200D1*
X2029380D1*
X2277460Y1019881D2*
Y597440D1*
X2349949Y524951D1*
X3931200D1*
X3987449Y581200D1*
Y681200D1*
X3887449D2*
Y581200D1*
X3849949Y543700D1*
X2356200D1*
X2297145Y602755D1*
Y1019881D1*
X4087449Y681200D2*
Y543700D1*
X4049949Y506200D1*
X2337449D1*
X2257775Y585875D1*
Y1019881D1*
X4056200Y2081200D2*
Y2016880D1*
X3963238D1*
X3918700Y1972342D1*
Y1899951D1*
X3531200D2*
X3474949Y1843700D1*
Y1687449D1*
X3406200Y1618700D1*
Y1112449D1*
X3293700Y999949D1*
X3193701D1*
X3021210Y1172440D1*
X2981200D1*
X1697686Y781200D2*
X1781200D1*
X1793700Y768700D1*
X1831200D1*
Y799951D1*
X1837449Y806200D1*
X2131200D1*
X2218405Y893405D1*
Y1019881D1*
X1697686Y831200D2*
X1824949D1*
X1831200Y837451D1*
Y1156200D1*
X1856200Y1181200D1*
X2068700D1*
X2097145Y1152755D1*
X2144586D1*
X1697686Y731200D2*
X1762451D1*
X1793700Y699951D1*
X1831200D1*
X2690846Y1019881D2*
Y959596D1*
X2687449Y956200D1*
X2137449Y724951D2*
X2131200Y731200D1*
X1837451D1*
X1831200Y724949D1*
Y699951D1*
X2981200Y1369291D2*
X3018109D1*
X3068700Y1318700D1*
X3374949D1*
X3387449Y1331200D1*
Y1631200D1*
X3456200Y1699951D1*
Y1899951D1*
X3493700Y1937451D1*
X3593700D1*
Y2018700D2*
Y2112451D1*
X3693700Y2212451D1*
X3893700D1*
X3937449Y2256200D1*
Y2499951D1*
X3909940Y2527460D1*
X3868700D1*
X2981200Y1329920D2*
Y1331200D1*
X3012451D1*
X3081200Y1262451D1*
X2593700Y812449D2*
X2693699D1*
X2737449Y856200D1*
Y943700D1*
X2769586Y975836D1*
Y1019881D1*
X2493700Y712449D2*
X2543700Y762449D1*
Y831200D1*
X2574951Y862451D1*
X2706201D1*
X2718700Y874949D1*
Y949951D1*
X2749901Y981151D1*
Y1019881D1*
X3170520Y1087451D2*
X3137449D1*
X3032775Y1192125D1*
X2981200D1*
X3170520Y1087451D2*
Y1073129D1*
X3206200Y1037449D1*
X4049949Y1137449D2*
X4062449Y1124949D1*
X4049949Y1137449D2*
Y1037451D1*
X4156200Y931200D1*
Y512451D1*
X4112449Y468700D1*
X818700D1*
X774923Y512477D1*
Y999949D1*
Y1787351D2*
X693600D1*
X662449Y1756200D1*
Y1031200D1*
X693700Y999949D1*
X774923D1*
X4031200Y5656200D2*
D14*
Y5613382D1*
Y5573129D1*
X2789271Y1856495D2*
D17*
Y1891878D1*
X2749949Y1931200D1*
Y2099951D1*
X2874949Y2224951D1*
Y2299949D1*
X2893700Y2318700D1*
X3043699D1*
X3737449Y3012451D1*
X3993700D1*
X4081200Y3099951D1*
Y5599949D1*
X4067767Y5613382D1*
X4031200D1*
X2118700Y2006200D2*
X2238090Y1886810D1*
Y1856495D1*
X2981200Y1644881D2*
X3038630D1*
X3062449Y1668700D1*
X3331200D1*
X3356200Y1693700D1*
Y1962449D1*
X3724951Y2331200D1*
X3829920D1*
X3868700Y2369980D1*
X3906200Y2849951D2*
Y2787451D1*
D84*
X3131200Y2743700D3*
X1918700Y2656200D3*
X2512401Y2987401D3*
X3299949Y1862451D3*
X3593700Y1606200D3*
X2281200Y1493700D3*
X1237449Y2824951D3*
X1974949Y881200D3*
Y768700D3*
Y693700D3*
Y599949D3*
X1412449Y893700D3*
X1974949Y881200D3*
X1168700Y2956200D3*
X2956200Y2606200D3*
X2156200D3*
X2956200D3*
X1993700Y2931200D3*
X1793700Y2706200D3*
X1193700Y5931200D3*
X2468700Y1943700D3*
X2431200Y2156200D3*
X2068700Y2906200D3*
X1406200Y2481200D3*
X2756200Y2168700D3*
X2518700Y1968700D3*
X2306200Y2093700D3*
X2393700D3*
X2306200D3*
X2893700Y2456200D3*
X2762449Y2237449D3*
X1360629Y2298129D3*
X2356200Y2168700D3*
X3806200Y2787449D3*
X2293700Y2168700D3*
X2218700D3*
X1456200Y2631200D3*
X1468700Y2943700D3*
X1456200Y2631200D3*
X2924949Y2281200D3*
X1681200Y3443700D3*
Y3143503D3*
X1582294Y3587088D3*
X1681200Y3443700D3*
Y3143503D3*
X1443700Y3106200D3*
X2537451Y3443700D3*
X2518700Y3156200D3*
X2431200Y3593701D3*
X2537451Y3443700D3*
D3*
X2518700Y3156200D3*
X3281692Y3580708D3*
X3368700Y3156200D3*
X2293700Y3106200D3*
X3381200Y3443700D3*
X3368700Y3156200D3*
X3281692Y3580708D3*
X3381200Y3443700D3*
X3143700Y3106200D3*
X3368700Y3156200D3*
X2518700D3*
X2293700Y3106200D3*
X2606200Y2556200D3*
D85*
X3473588Y5631200D3*
D84*
X3131200Y5656200D3*
D85*
X3473588Y5631200D3*
D84*
X2664271Y5464271D3*
X2814271D3*
X2664271D3*
X2631200Y5756200D3*
X2456200Y5856200D3*
X2631200Y5756200D3*
X2456200Y5856200D3*
X2631200Y5756200D3*
X3131200Y5656200D3*
X1731200Y5818700D3*
X1301476Y5560924D3*
X924468Y5631200D3*
X789271Y5906200D3*
X693700Y5514271D3*
X1106200Y5281200D3*
X581200Y5193700D3*
D3*
X706200Y4168700D3*
X1018700Y4481200D3*
X693700Y5514271D3*
X924468Y5631200D3*
X1301476Y5560924D3*
D3*
X1731200Y5818700D3*
X2456200Y5856200D3*
X581200Y5193700D3*
X706200Y4168700D3*
X2056003Y2393897D3*
X2343700Y2718700D3*
X2618700Y2318700D3*
X843700Y3223507D3*
X2293700Y3106200D3*
X2056200Y1943700D3*
X2456200Y2043700D3*
X1943701Y1056201D3*
X3368700Y1195275D3*
X3331200Y912449D3*
X2981200Y956200D3*
X2468700Y1743700D3*
X2887696Y1750196D3*
X2656200Y1743700D3*
X2824951Y1606200D3*
X2874949Y1368700D3*
X2612451Y1124951D3*
X2412449Y1124949D3*
X2249949Y1137451D3*
Y1387451D3*
Y1599951D3*
X3243700Y1706200D3*
X3312449Y1456200D3*
X3706200Y2056200D3*
X3931200Y2049951D3*
X4031200Y5406200D3*
X1356200Y2206200D3*
X1431200Y681200D3*
X824999Y1393650D3*
X3491878Y1514271D3*
X3612449Y1318700D3*
X3495520Y1651771D3*
X3556200Y1318700D3*
X3131199Y1281200D3*
X2906200Y3093700D3*
X2818700D3*
X2568700Y2881200D3*
X2106200Y3118700D3*
X2731200Y2806200D3*
X2568700D3*
X1906200Y2981200D3*
X1849949Y2837451D3*
X1668700Y2856200D3*
X1568700D3*
X1718700Y2906200D3*
X1518700Y2893700D3*
X3774586Y2044064D3*
X4087449Y1868700D3*
X3918700Y1899951D3*
X3531200D3*
X2687449Y956200D3*
X2137449Y724951D3*
X3593700Y1937451D3*
Y2018700D3*
X3081200Y1262451D3*
X3206200Y1037449D3*
X4049949Y1137449D3*
D3*
X3906200Y2787451D3*
D25*
X1486368Y4241766D3*
X2331200Y4237451D3*
X3184325Y4234325D3*
D84*
X2956200Y1843700D3*
X3037449Y1924951D3*
X3593700Y2587451D3*
Y2749951D3*
X1432594Y4281931D2*
D23*
X1547231D1*
X1415405Y4257062D2*
X1547231D1*
X1421289Y4232193D2*
X1547231D1*
X1427175Y4207325D2*
X1547231D1*
X1433024Y4182456D2*
X1547231D1*
X1438909Y4157587D2*
X1547231D1*
X1444758Y4132718D2*
X1547231D1*
X1450642Y4107850D2*
X1547231D1*
X1456528Y4082981D2*
X1547231D1*
X1462377Y4058112D2*
X1547231D1*
X1468262Y4033243D2*
X1547231D1*
X1474111Y4008375D2*
X1547231D1*
X1479997Y3983506D2*
X1547231D1*
X1485881Y3958637D2*
X1547231D1*
X1491730Y3933768D2*
X1547231D1*
X1497615Y3908899D2*
X1547231D1*
X1537159Y3884031D2*
X1547231D1*
X1549738Y3882932D2*
Y4306797D1*
X1450600Y4306800D1*
X1412166Y4260159D1*
X1495731Y3906260D1*
X1508498Y3885911D1*
X1549755Y3882962D1*
X1617006Y4487690D2*
X1726548D1*
X1616969Y4462821D2*
X1733330D1*
X1616969Y4437952D2*
X1730351D1*
X1616969Y4413083D2*
X1727409D1*
X1616934Y4388214D2*
X1724431D1*
X1616934Y4363346D2*
X1721452D1*
X1616934Y4338477D2*
X1718510D1*
X1616898Y4313608D2*
X1715531D1*
X1616898Y4288739D2*
X1712588D1*
X1616861Y4263871D2*
X1709611D1*
X1616861Y4239002D2*
X1706669D1*
X1616861Y4214133D2*
X1703690D1*
X1616826Y4189264D2*
X1700747D1*
X1616826Y4164396D2*
X1697768D1*
X1616791Y4139527D2*
X1694826D1*
X1616791Y4114658D2*
X1691848D1*
X1616791Y4089789D2*
X1688905D1*
X1616754Y4064920D2*
X1685927D1*
X1616754Y4040052D2*
X1682948D1*
X1616718Y4015183D2*
X1680006D1*
X1616718Y3990314D2*
X1677028D1*
X1616718Y3965445D2*
X1674085D1*
X1616683Y3940577D2*
X1671107D1*
X1616683Y3915708D2*
X1668165D1*
X1614515Y4512528D2*
X1614171Y3901420D1*
X1668983Y3901919D1*
X1737899Y4480314D1*
X1699532Y4512377D1*
X1614528Y4512535D1*
X1383712Y4706331D2*
X1484965D1*
X1383712Y4681462D2*
X1484965D1*
X1383712Y4656594D2*
X1484965D1*
X1383712Y4631725D2*
X1484965D1*
X1383712Y4606856D2*
X1484965D1*
X1375566Y4581987D2*
X1484965D1*
X1158718Y4557119D2*
X1484965D1*
X1158718Y4532250D2*
X1484965D1*
X1158718Y4507381D2*
X1484965D1*
X1158718Y4482512D2*
X1484965D1*
X1158718Y4457644D2*
X1484965D1*
X1158718Y4432775D2*
X1484965D1*
X1158718Y4407906D2*
X1484965D1*
X1487451Y4406224D2*
Y4731191D1*
X1381210Y4731200D1*
X1381046Y4591745D1*
X1380249Y4588917D1*
X1378813Y4586352D1*
X1376818Y4584195D1*
X1374375Y4582562D1*
X1371619Y4581545D1*
X1368696Y4581200D1*
X1156230D1*
X1156200Y4406205D1*
X1487435Y4406200D1*
X1333718Y5231331D2*
X3991217D1*
X1333718Y5206462D2*
X3991217D1*
X1333718Y5181594D2*
X3991217D1*
X1333718Y5156725D2*
X3991217D1*
X1333718Y5131856D2*
X3991217D1*
X1333718Y5106987D2*
X3991217D1*
X1333718Y5082119D2*
X3991217D1*
X1333718Y5057250D2*
X3991217D1*
X1333718Y5032381D2*
X3991217D1*
X1333718Y5007512D2*
X3991217D1*
X1333718Y4982644D2*
X3991217D1*
X1333718Y4957775D2*
X3991217D1*
X1331200Y5256176D2*
Y4956184D1*
X3993687Y4956200D1*
X3993700Y5256216D1*
X1331213Y5256200D1*
X3746218Y3900082D2*
X3966212D1*
X3746218Y3875213D2*
X3966212D1*
X3746218Y3850344D2*
X3966212D1*
X3746218Y3825476D2*
X3966212D1*
X3746218Y3800607D2*
X3966212D1*
X3746218Y3775738D2*
X3966212D1*
X3746218Y3750869D2*
X3966212D1*
X3746218Y3726001D2*
X3966212D1*
X3746218Y3701132D2*
X3966212D1*
X3743700Y3924927D2*
Y3699934D1*
X3968717Y3699951D1*
X3968700Y3924968D1*
X3743683Y3924951D1*
X2282594Y4281931D2*
X2397231D1*
X2265405Y4257062D2*
X2397231D1*
X2271289Y4232193D2*
X2397231D1*
X2277175Y4207325D2*
X2397231D1*
X2283024Y4182456D2*
X2397231D1*
X2288909Y4157587D2*
X2397231D1*
X2294758Y4132718D2*
X2397231D1*
X2300642Y4107850D2*
X2397231D1*
X2306528Y4082981D2*
X2397231D1*
X2312377Y4058112D2*
X2397231D1*
X2318262Y4033243D2*
X2397231D1*
X2324111Y4008375D2*
X2397231D1*
X2329997Y3983506D2*
X2397231D1*
X2335881Y3958637D2*
X2397231D1*
X2341730Y3933768D2*
X2397231D1*
X2347615Y3908899D2*
X2397231D1*
X2387159Y3884031D2*
X2397231D1*
X2399738Y3882932D2*
Y4306797D1*
X2300600Y4306800D1*
X2262166Y4260159D1*
X2345731Y3906260D1*
X2358498Y3885911D1*
X2399755Y3882962D1*
X2467006Y4487690D2*
X2576548D1*
X2466969Y4462821D2*
X2583330D1*
X2466969Y4437952D2*
X2580351D1*
X2466969Y4413083D2*
X2577409D1*
X2466934Y4388214D2*
X2574431D1*
X2466934Y4363346D2*
X2571452D1*
X2466934Y4338477D2*
X2568510D1*
X2466898Y4313608D2*
X2565531D1*
X2466898Y4288739D2*
X2562588D1*
X2466861Y4263871D2*
X2559611D1*
X2466861Y4239002D2*
X2556669D1*
X2466861Y4214133D2*
X2553690D1*
X2466826Y4189264D2*
X2550747D1*
X2466826Y4164396D2*
X2547768D1*
X2466791Y4139527D2*
X2544826D1*
X2466791Y4114658D2*
X2541848D1*
X2466791Y4089789D2*
X2538905D1*
X2466754Y4064920D2*
X2535927D1*
X2466754Y4040052D2*
X2532948D1*
X2466718Y4015183D2*
X2530006D1*
X2466718Y3990314D2*
X2527028D1*
X2466718Y3965445D2*
X2524085D1*
X2466683Y3940577D2*
X2521107D1*
X2466683Y3915708D2*
X2518165D1*
X2464515Y4512528D2*
X2464171Y3901420D1*
X2518983Y3901919D1*
X2587899Y4480314D1*
X2549532Y4512377D1*
X2464528Y4512535D1*
X2233712Y4706331D2*
X2334965D1*
X2233712Y4681462D2*
X2334965D1*
X2233712Y4656594D2*
X2334965D1*
X2233712Y4631725D2*
X2334965D1*
X2233712Y4606856D2*
X2334965D1*
X2225566Y4581987D2*
X2334965D1*
X2008718Y4557119D2*
X2334965D1*
X2008718Y4532250D2*
X2334965D1*
X2008718Y4507381D2*
X2334965D1*
X2008718Y4482512D2*
X2334965D1*
X2008718Y4457644D2*
X2334965D1*
X2008718Y4432775D2*
X2334965D1*
X2008718Y4407906D2*
X2334965D1*
X2337451Y4406224D2*
Y4731191D1*
X2231210Y4731200D1*
X2231046Y4591745D1*
X2230249Y4588917D1*
X2228813Y4586352D1*
X2226818Y4584195D1*
X2224375Y4582562D1*
X2221619Y4581545D1*
X2218696Y4581200D1*
X2006230D1*
X2006200Y4406205D1*
X2337435Y4406200D1*
X3132595Y4281931D2*
X3247233D1*
X3115406Y4257062D2*
X3247233D1*
X3121291Y4232193D2*
X3247233D1*
X3127176Y4207325D2*
X3247233D1*
X3133025Y4182456D2*
X3247233D1*
X3138910Y4157587D2*
X3247233D1*
X3144759Y4132718D2*
X3247233D1*
X3150644Y4107850D2*
X3247233D1*
X3156529Y4082981D2*
X3247233D1*
X3162378Y4058112D2*
X3247233D1*
X3168263Y4033243D2*
X3247233D1*
X3174112Y4008375D2*
X3247233D1*
X3179998Y3983506D2*
X3247233D1*
X3185882Y3958637D2*
X3247233D1*
X3191731Y3933768D2*
X3247233D1*
X3197616Y3908899D2*
X3247233D1*
X3237197Y3884031D2*
X3247233D1*
X3249738Y3882934D2*
Y4306798D1*
X3150600Y4306800D1*
X3112166Y4260159D1*
X3195731Y3906260D1*
X3208498Y3885911D1*
X3249755Y3882964D1*
X3317006Y4487690D2*
X3426548D1*
X3316969Y4462821D2*
X3433330D1*
X3316969Y4437952D2*
X3430351D1*
X3316969Y4413083D2*
X3427409D1*
X3316934Y4388214D2*
X3424431D1*
X3316934Y4363346D2*
X3421452D1*
X3316934Y4338477D2*
X3418510D1*
X3316898Y4313608D2*
X3415531D1*
X3316898Y4288739D2*
X3412588D1*
X3316861Y4263871D2*
X3409611D1*
X3316861Y4239002D2*
X3406669D1*
X3316861Y4214133D2*
X3403690D1*
X3316826Y4189264D2*
X3400747D1*
X3316826Y4164396D2*
X3397768D1*
X3316791Y4139527D2*
X3394826D1*
X3316791Y4114658D2*
X3391848D1*
X3316791Y4089789D2*
X3388905D1*
X3316754Y4064920D2*
X3385927D1*
X3316754Y4040052D2*
X3382948D1*
X3316718Y4015183D2*
X3380006D1*
X3316718Y3990314D2*
X3377028D1*
X3316718Y3965445D2*
X3374085D1*
X3316683Y3940577D2*
X3371107D1*
X3316683Y3915708D2*
X3368165D1*
X3314515Y4512528D2*
X3314171Y3901420D1*
X3368983Y3901919D1*
X3437899Y4480314D1*
X3399533Y4512377D1*
X3314529Y4512535D1*
X3083713Y4706333D2*
X3184966D1*
X3083713Y4681464D2*
X3184966D1*
X3083713Y4656595D2*
X3184966D1*
X3083713Y4631726D2*
X3184966D1*
X3083713Y4606857D2*
X3184966D1*
X3075567Y4581989D2*
X3184966D1*
X2858720Y4557120D2*
X3184966D1*
X2858720Y4532251D2*
X3184966D1*
X2858720Y4507382D2*
X3184966D1*
X2858720Y4482514D2*
X3184966D1*
X2858720Y4457645D2*
X3184966D1*
X2858720Y4432776D2*
X3184966D1*
X2858720Y4407907D2*
X3184966D1*
X3187452Y4406224D2*
Y4731191D1*
X3081212Y4731201D1*
X3081046Y4591746D1*
X3080249Y4588918D1*
X3078813Y4586354D1*
X3076818Y4584196D1*
X3074375Y4582564D1*
X3071619Y4581546D1*
X3068696Y4581201D1*
X2856230D1*
X2856201Y4406207D1*
X3187436Y4406200D1*
X2208718Y1768831D2*
X2404239D1*
X2513267D2*
X2599808D1*
X2700762D2*
X2839873D1*
X2208718Y1743962D2*
X2417193D1*
X2520192D2*
X2604688D1*
X2707688D2*
X2836607D1*
X2208718Y1719094D2*
X2423831D1*
X2513590D2*
X2611326D1*
X2701085D2*
X2847336D1*
X2208718Y1694225D2*
X2868759D1*
X2208718Y1669356D2*
X2843892D1*
X2208718Y1644487D2*
X2227007D1*
X2272878D2*
X2791860D1*
X2297315Y1619619D2*
X2775317D1*
X2882587D2*
X2909955D1*
X2301155Y1594750D2*
X2774814D1*
X2875087D2*
X2909955D1*
X2291144Y1569881D2*
X2789564D1*
X2860339D2*
X2909955D1*
X2208718Y1545012D2*
X2909955D1*
X2208718Y1520144D2*
X2909955D1*
X2208718Y1495275D2*
X2909955D1*
X2208718Y1470406D2*
X2909955D1*
X2208718Y1445537D2*
X2909955D1*
X2288489Y1420669D2*
X2909955D1*
X2300725Y1395800D2*
X2831620D1*
X2298571Y1370931D2*
X2823510D1*
X2278692Y1346062D2*
X2829001D1*
X2208718Y1321193D2*
X2860435D1*
X2889441D2*
X2909955D1*
X2208718Y1296325D2*
X2909955D1*
X2208718Y1271456D2*
X2909955D1*
X2208718Y1246587D2*
X2909955D1*
X2208718Y1221718D2*
X2909955D1*
X2208718Y1196850D2*
X2909955D1*
X2287233Y1171981D2*
X2396201D1*
X2428688D2*
X2596183D1*
X2628707D2*
X2909955D1*
X2300474Y1147112D2*
X2366238D1*
X2458651D2*
X2566256D1*
X2658670D2*
X2909955D1*
X2299039Y1122243D2*
X2361035D1*
X2463890D2*
X2561016D1*
X2663873D2*
X2909955D1*
X2280630Y1097375D2*
X2369431D1*
X2466940D2*
X2569449D1*
X2663801D2*
X2909955D1*
X2405440Y1777495D2*
Y1793716D1*
X2206225Y1793700D1*
X2206291Y1622196D1*
X2210308Y1628752D1*
X2215301Y1634599D1*
X2221148Y1639592D1*
X2227704Y1643609D1*
X2234808Y1646553D1*
X2242284Y1648347D1*
X2249949Y1648951D1*
X2257615Y1648347D1*
X2265091Y1646553D1*
X2272195Y1643609D1*
X2278751Y1639592D1*
X2284598Y1634599D1*
X2289591Y1628752D1*
X2293608Y1622196D1*
X2296552Y1615092D1*
X2298346Y1607616D1*
X2298949Y1599951D1*
X2298346Y1592285D1*
X2296552Y1584809D1*
X2293608Y1577705D1*
X2289591Y1571149D1*
X2284598Y1565302D1*
X2278751Y1560309D1*
X2272195Y1556292D1*
X2265091Y1553348D1*
X2257615Y1551554D1*
X2249949Y1550951D1*
X2242284Y1551554D1*
X2234808Y1553348D1*
X2227638Y1556329D1*
X2206220Y1556326D1*
X2206291Y1409696D1*
X2210308Y1416252D1*
X2215301Y1422099D1*
X2221148Y1427092D1*
X2227704Y1431109D1*
X2234808Y1434053D1*
X2242284Y1435847D1*
X2249949Y1436451D1*
X2257615Y1435847D1*
X2265091Y1434053D1*
X2272195Y1431109D1*
X2278751Y1427092D1*
X2284598Y1422099D1*
X2289591Y1416252D1*
X2293608Y1409696D1*
X2296552Y1402592D1*
X2298346Y1395116D1*
X2298949Y1387451D1*
X2298346Y1379785D1*
X2296552Y1372309D1*
X2293608Y1365205D1*
X2289591Y1358649D1*
X2284598Y1352802D1*
X2278751Y1347809D1*
X2272195Y1343792D1*
X2265091Y1340848D1*
X2257615Y1339054D1*
X2249949Y1338451D1*
X2242284Y1339054D1*
X2236962Y1340241D1*
X2231780Y1339791D1*
X2206204D1*
X2206291Y1159696D1*
X2210308Y1166252D1*
X2215301Y1172099D1*
X2221148Y1177092D1*
X2227704Y1181109D1*
X2234808Y1184053D1*
X2242284Y1185847D1*
X2249949Y1186451D1*
X2257615Y1185847D1*
X2265091Y1184053D1*
X2272195Y1181109D1*
X2278751Y1177092D1*
X2284598Y1172099D1*
X2289591Y1166252D1*
X2293608Y1159696D1*
X2296552Y1152592D1*
X2298346Y1145116D1*
X2298949Y1137451D1*
X2298346Y1129785D1*
X2296552Y1122309D1*
X2293608Y1115205D1*
X2289591Y1108649D1*
X2284598Y1102802D1*
X2278751Y1097809D1*
X2272195Y1093792D1*
X2265091Y1090848D1*
X2257615Y1089054D1*
X2249949Y1088451D1*
X2242537Y1089024D1*
X2237172Y1086130D1*
X2232771Y1084700D1*
X2228199Y1083976D1*
X2206183Y1083885D1*
X2212073Y1081200D1*
X2390204Y1081291D1*
X2383648Y1085308D1*
X2377801Y1090301D1*
X2372808Y1096148D1*
X2368791Y1102704D1*
X2365847Y1109808D1*
X2364053Y1117284D1*
X2363449Y1124949D1*
X2364053Y1132615D1*
X2365847Y1140091D1*
X2368791Y1147195D1*
X2372808Y1153751D1*
X2377801Y1159598D1*
X2383648Y1164591D1*
X2390204Y1168608D1*
X2397308Y1171552D1*
X2404784Y1173346D1*
X2412449Y1173949D1*
X2420115Y1173346D1*
X2427591Y1171552D1*
X2434695Y1168608D1*
X2441251Y1164591D1*
X2447098Y1159598D1*
X2452091Y1153751D1*
X2456108Y1147195D1*
X2459052Y1140091D1*
X2460846Y1132615D1*
X2461449Y1124949D1*
X2460743Y1116768D1*
X2462997Y1111574D1*
X2464077Y1107073D1*
X2464440Y1102449D1*
Y1081179D1*
X2590205Y1081292D1*
X2583649Y1085309D1*
X2577802Y1090302D1*
X2572809Y1096149D1*
X2568792Y1102705D1*
X2565848Y1109809D1*
X2564054Y1117285D1*
X2563451Y1124951D1*
X2564054Y1132616D1*
X2565848Y1140092D1*
X2568792Y1147196D1*
X2572809Y1153752D1*
X2577802Y1159599D1*
X2583649Y1164592D1*
X2590205Y1168609D1*
X2597309Y1171553D1*
X2604785Y1173347D1*
X2612451Y1173951D1*
X2620116Y1173347D1*
X2627592Y1171553D1*
X2634696Y1168609D1*
X2641252Y1164592D1*
X2647099Y1159599D1*
X2652092Y1153752D1*
X2656109Y1147196D1*
X2659053Y1140092D1*
X2660847Y1132616D1*
X2661451Y1124951D1*
X2660847Y1117285D1*
X2660146Y1113763D1*
X2661200Y1107926D1*
X2661291Y1081174D1*
X2912424Y1081200D1*
X2912449Y1337150D1*
X2906772Y1331440D1*
X2900552Y1326920D1*
X2893701Y1323430D1*
X2886388Y1321054D1*
X2878794Y1319851D1*
X2871104D1*
X2863511Y1321054D1*
X2856197Y1323430D1*
X2849347Y1326920D1*
X2843127Y1331440D1*
X2837690Y1336877D1*
X2833170Y1343098D1*
X2829679Y1349948D1*
X2827304Y1357262D1*
X2826100Y1364855D1*
Y1372545D1*
X2827304Y1380138D1*
X2829679Y1387452D1*
X2833170Y1394302D1*
X2837690Y1400523D1*
X2843127Y1405960D1*
X2849347Y1410480D1*
X2856197Y1413970D1*
X2863511Y1416346D1*
X2871104Y1417549D1*
X2878794D1*
X2884959Y1416630D1*
X2890611Y1418112D1*
X2895234Y1418476D1*
X2912414D1*
X2912449Y1651998D1*
X2873494Y1613024D1*
X2873951Y1606200D1*
X2873347Y1598535D1*
X2871553Y1591058D1*
X2868609Y1583955D1*
X2864592Y1577398D1*
X2859599Y1571552D1*
X2853752Y1566558D1*
X2847196Y1562541D1*
X2840092Y1559598D1*
X2832616Y1557804D1*
X2824951Y1557200D1*
X2817285Y1557804D1*
X2809809Y1559598D1*
X2802705Y1562541D1*
X2796149Y1566558D1*
X2790302Y1571552D1*
X2785309Y1577398D1*
X2781292Y1583955D1*
X2778348Y1591058D1*
X2776554Y1598535D1*
X2775951Y1606200D1*
X2776554Y1613865D1*
X2778348Y1621342D1*
X2781292Y1628445D1*
X2785309Y1635002D1*
X2790302Y1640848D1*
X2796149Y1645842D1*
X2802705Y1649859D1*
X2809809Y1652802D1*
X2817285Y1654596D1*
X2824951Y1655200D1*
X2831735Y1654701D1*
X2879020Y1701989D1*
X2872554Y1703594D1*
X2865451Y1706537D1*
X2858894Y1710554D1*
X2853048Y1715548D1*
X2848054Y1721394D1*
X2844037Y1727951D1*
X2841094Y1735054D1*
X2839300Y1742531D1*
X2838696Y1750196D1*
X2839300Y1757861D1*
X2841094Y1765338D1*
X2844037Y1772441D1*
X2848054Y1778998D1*
X2853048Y1784844D1*
X2858199Y1789289D1*
X2851459Y1793700D1*
X2661308D1*
X2663865Y1792096D1*
X2671342Y1790302D1*
X2678445Y1787359D1*
X2685002Y1783342D1*
X2690848Y1778348D1*
X2695842Y1772502D1*
X2699859Y1765945D1*
X2702802Y1758842D1*
X2704596Y1751365D1*
X2705200Y1743700D1*
X2704596Y1736035D1*
X2702802Y1728558D1*
X2699859Y1721455D1*
X2695842Y1714898D1*
X2690848Y1709052D1*
X2685002Y1704058D1*
X2678445Y1700041D1*
X2671342Y1697098D1*
X2663865Y1695304D1*
X2656200Y1694700D1*
X2648535Y1695304D1*
X2641058Y1697098D1*
X2633955Y1700041D1*
X2627398Y1704058D1*
X2621552Y1709052D1*
X2616558Y1714898D1*
X2612541Y1721455D1*
X2609598Y1728558D1*
X2607804Y1736035D1*
X2607200Y1743700D1*
X2607759Y1750993D1*
X2605506Y1754717D1*
X2603734Y1758994D1*
X2602654Y1763494D1*
X2602291Y1768119D1*
Y1793695D1*
X2464448Y1793700D1*
X2464855Y1792549D1*
X2472545D1*
X2480138Y1791346D1*
X2487452Y1788970D1*
X2494302Y1785480D1*
X2500523Y1780960D1*
X2505960Y1775523D1*
X2510480Y1769302D1*
X2513970Y1762452D1*
X2516346Y1755138D1*
X2517549Y1747545D1*
Y1739855D1*
X2516346Y1732262D1*
X2513970Y1724948D1*
X2510480Y1718098D1*
X2505960Y1711877D1*
X2500523Y1706440D1*
X2494302Y1701920D1*
X2487452Y1698430D1*
X2480138Y1696054D1*
X2472545Y1694851D1*
X2464855D1*
X2457262Y1696054D1*
X2449948Y1698430D1*
X2443098Y1701920D1*
X2436877Y1706440D1*
X2431440Y1711877D1*
X2426920Y1718098D1*
X2423430Y1724948D1*
X2421054Y1732262D1*
X2419851Y1739855D1*
Y1747545D1*
X2420199Y1750485D1*
X2412508Y1758301D1*
X2409787Y1762046D1*
X2407686Y1766171D1*
X2406255Y1770573D1*
X2405531Y1775145D1*
X2405440Y1777469D1*
D28*
X774930Y999949D3*
D29*
Y1393650D3*
D28*
Y1787351D3*
D30*
X4056200Y2081200D3*
Y2148129D3*
D31*
X3237449Y1087451D3*
X3170520D3*
X3368700Y1145275D3*
X3301771D3*
D32*
X1893700Y1118700D3*
Y1008464D3*
D31*
X3368700Y1245275D3*
X3301771D3*
D30*
X3356200Y1424949D3*
Y1358020D3*
D33*
X1893700Y1331200D3*
Y1406003D3*
D30*
X3356200Y1487451D3*
Y1554380D3*
X3818700Y2012449D3*
Y1945520D3*
D34*
X3143700Y912449D3*
X3253936D3*
D33*
X3299949Y1793700D3*
Y1718897D3*
D30*
X3106200Y1774949D3*
Y1708020D3*
D34*
X2118700Y2006200D3*
X2008464D3*
D31*
X2918700Y906200D3*
X2985629D3*
X2649949D3*
X2583020D3*
X2493700D3*
X2426771D3*
D30*
X2006200Y1056200D3*
Y1123129D3*
Y1331200D3*
Y1398129D3*
Y1543700D3*
Y1610629D3*
D31*
X2131200Y1893700D3*
X2064271D3*
X2393700Y1993700D3*
X2460629D3*
X2593700D3*
X2660629D3*
X2843700D3*
X2910629D3*
D30*
X3193700Y1774949D3*
Y1708020D3*
X3106200Y1418700D3*
Y1351771D3*
D31*
X1506200Y2243700D3*
X1439271D3*
D30*
X2356200Y2818700D3*
Y2885629D3*
X2456200Y2818700D3*
Y2885629D3*
D33*
X2112449Y2468700D3*
Y2393897D3*
D36*
X3806200Y4693700D3*
Y4181889D3*
D38*
X3831200Y3456200D3*
Y3164861D3*
D39*
X1256200Y5106200D3*
X1102657D3*
D40*
X2968602Y5356200D3*
X2893798D3*
D31*
X2381200Y5481200D3*
X2448129D3*
X1881200Y5881200D3*
X1814271D3*
X1981200D3*
X2048129D3*
D42*
X3556200Y5531200D3*
Y5700491D3*
X3231200Y5531200D3*
Y5700491D3*
D31*
X2964665Y5481200D3*
X2897735D3*
D32*
X1631200Y5556200D3*
Y5666436D3*
D44*
X1381200Y5356200D3*
Y5560924D3*
D31*
X2793700Y5768700D3*
X2726771D3*
D40*
X2381200Y5781200D3*
X2456003D3*
D46*
X693700Y3118700D3*
X898424D3*
D30*
X906200Y5206200D3*
Y5273129D3*
D31*
X1093700Y5381200D3*
X1026771D3*
X1093700Y5481200D3*
X1026771D3*
D30*
X956200Y5781200D3*
Y5848129D3*
D34*
X906200Y4356200D3*
X1016436D3*
D46*
X906200Y4081200D3*
X701476D3*
D30*
X627165Y5627165D3*
Y5560235D3*
D33*
X647735Y5264468D3*
Y5189665D3*
D30*
X3681200Y2718700D3*
Y2651771D3*
X1412449Y824951D3*
Y758022D3*
X3681200Y1868700D3*
Y1801771D3*
X993700Y2056200D3*
Y2123129D3*
X3681200Y1306200D3*
Y1239271D3*
D31*
X1768700Y3043700D3*
X1701771D3*
X2618700D3*
X2551771D3*
X3468700D3*
X3401771D3*
D40*
X1543700Y3206200D3*
X1618503D3*
X2393897D3*
X2468700D3*
X3243700D3*
X3318503D3*
D39*
X1318700Y3318700D3*
X1165157D3*
X2168700D3*
X2015157D3*
X3018700D3*
X2865157D3*
D40*
X1543700Y3443700D3*
X1618503D3*
X2393700D3*
X2468503D3*
X3243700D3*
X3318503D3*
D31*
X1293700Y2543700D3*
X1360629D3*
X1293700Y2443700D3*
X1360629D3*
X1293700Y2343700D3*
X1360629D3*
X1768700Y3206200D3*
X1701771D3*
X2618700D3*
X2551771D3*
X3468700D3*
X3401771D3*
D47*
X3856200Y5431200D3*
Y5682200D3*
D48*
X3331200Y5356200D3*
D49*
X3431200D3*
D48*
X1456200Y5831200D3*
D49*
Y5731200D3*
D48*
X856200Y2868700D3*
D49*
X756200D3*
D48*
X1281200Y5831200D3*
D49*
Y5731200D3*
D48*
X1106200D3*
D49*
Y5831200D3*
D48*
X856200Y3831200D3*
D49*
X756200D3*
D52*
X3868700Y2606200D3*
X3789960D3*
X3868700Y2527460D3*
X3789960D3*
X3868700Y2448720D3*
X3789960D3*
X3868700Y2369980D3*
X3789960D3*
X3868700Y2291239D3*
X3789960D3*
D54*
X1537449Y831200D3*
Y781200D3*
Y731200D3*
Y681200D3*
Y631200D3*
X1697686D3*
Y681200D3*
Y731200D3*
Y781200D3*
Y831200D3*
D52*
X3868700Y1768700D3*
X3789960D3*
X3868700Y1689960D3*
X3789960D3*
X3868700Y1611220D3*
X3789960D3*
X3868700Y1532480D3*
X3789960D3*
X3868700Y1453739D3*
X3789960D3*
X793700Y2143700D3*
X872440D3*
X793700Y2222440D3*
X872440D3*
X793700Y2301180D3*
X872440D3*
X793700Y2379920D3*
X872440D3*
X793700Y2458661D3*
X872440D3*
X3868700Y1206200D3*
X3789960D3*
X3868700Y1127460D3*
X3789960D3*
X3868700Y1048720D3*
X3789960D3*
X3868700Y969980D3*
X3789960D3*
X3868700Y891239D3*
X3789960D3*
D48*
X3031200Y2162449D3*
D49*
X3131200D3*
X3031200Y2062449D3*
X3131200D3*
D48*
X1743700Y2293700D3*
D49*
X1643700D3*
X1743700Y2393700D3*
X1643700D3*
X1743700Y2493700D3*
X1643700D3*
D48*
X2593700Y712449D3*
D49*
X2493700D3*
X2593700Y812449D3*
X2493700D3*
D48*
X1643700Y2093700D3*
D49*
X1743700D3*
X1643700Y1993700D3*
X1743700D3*
X1643700Y1893700D3*
X1743700D3*
X1643700Y1793700D3*
X1743700D3*
D55*
X2206200Y5556200D3*
X1806594D3*
D56*
X781200Y5006200D3*
Y4606594D3*
D57*
X3856200Y5106200D3*
Y3818700D3*
X1243700Y4493700D3*
X2090575Y4496825D3*
X2940575Y4493700D3*
D58*
X1543700Y4729502D3*
X1493700D3*
X1443700D3*
X1393700D3*
D59*
X1468700Y4889502D3*
D58*
X2393700Y4729502D3*
X2343700D3*
X2293700D3*
X2243700D3*
D59*
X2318700Y4889502D3*
D58*
X3243700Y4729502D3*
X3193700D3*
X3143700D3*
X3093700D3*
D59*
X3168700Y4889502D3*
D60*
X1618700Y4568700D3*
Y4518700D3*
Y4468700D3*
Y4418700D3*
D61*
X1458700Y4493700D3*
D60*
X2468700Y4568700D3*
Y4518700D3*
Y4468700D3*
Y4418700D3*
D61*
X2308700Y4493700D3*
D60*
X3318700Y4568700D3*
Y4518700D3*
Y4468700D3*
Y4418700D3*
D61*
X3158700Y4493700D3*
D30*
X2774949Y831200D3*
Y898129D3*
X4056200Y1949951D3*
Y2016880D3*
X3106200Y1556200D3*
Y1489271D3*
X3818700Y2143700D3*
Y2076771D3*
D31*
X2593700Y2093700D3*
X2660629D3*
X1510629Y2343700D3*
X1443700D3*
X1506200Y2443700D3*
X1439271D3*
X1506200Y2543700D3*
X1439271D3*
D30*
X2506200Y2168700D3*
Y2101771D3*
D31*
X1143700Y2543700D3*
X1210629D3*
X1139665Y2439665D3*
X1206594D3*
X1143700Y2343700D3*
X1210629D3*
X1206200Y2243700D3*
X1139271D3*
X2443700Y5581200D3*
X2376771D3*
X2964665Y5831200D3*
X2897735D3*
X2206200Y5881200D3*
X2139271D3*
X2964665Y5631200D3*
X2897735D3*
D30*
X1581200Y5818700D3*
Y5751771D3*
X4031200Y5656200D3*
Y5723129D3*
D31*
X2897735Y5731200D3*
X2964665D3*
D30*
X1681200Y5818700D3*
Y5751771D3*
X4031200Y5506200D3*
Y5573129D3*
X781200Y5273129D3*
Y5206200D3*
X631200Y5856200D3*
Y5789271D3*
D31*
X1031200Y5581200D3*
X1098129D3*
D30*
X835629Y5781200D3*
Y5848129D3*
D31*
X718700Y4356200D3*
X785629D3*
D30*
X731200Y5781200D3*
Y5848129D3*
D31*
X556200Y4356200D3*
X623129D3*
D30*
X3906200Y2849951D3*
Y2916880D3*
X3806200Y2849951D3*
Y2916880D3*
D31*
X1831200Y768700D3*
X1898129D3*
X1831200Y837451D3*
X1898129D3*
X1831200Y631200D3*
X1898129D3*
X1831200Y699951D3*
X1898129D3*
D30*
X3643700Y1649951D3*
Y1716880D3*
Y1512451D3*
Y1579380D3*
X3543700Y1718700D3*
Y1651771D3*
Y1581200D3*
Y1514271D3*
D31*
X1962451Y1681200D3*
X2029380D3*
X1962451Y1743700D3*
X2029380D3*
X1962451Y1806200D3*
X2029380D3*
D30*
X4087449Y681200D3*
Y748129D3*
X3987449Y681200D3*
Y748129D3*
X3887449Y681200D3*
Y748129D3*
D31*
X1543700Y3331200D3*
X1610629D3*
X2393700D3*
X2460629D3*
X3243700D3*
X3310629D3*
X1618700Y4718700D3*
X1685629D3*
X2468700D3*
X2535629D3*
X3318700D3*
X3385629D3*
X1393700Y3043700D3*
X1326771D3*
X2243700Y3031200D3*
X2176771D3*
X3093700D3*
X3026771D3*
X1393700Y2943700D3*
X1326771D3*
X2243700D3*
X2176771D3*
X3093700D3*
X3026771D3*
D30*
X1268700Y3668700D3*
Y3601771D3*
X2118700Y3668700D3*
Y3601771D3*
X2968700Y3668700D3*
Y3601771D3*
D31*
X1618700Y4618700D3*
X1685629D3*
X2468700D3*
X2535629D3*
X3318700D3*
X3385629D3*
D63*
X3918700Y2106200D3*
Y1972342D3*
X3687449Y2106200D3*
Y1972342D3*
D65*
X2981200Y1093700D3*
Y1113385D3*
Y1133070D3*
Y1152755D3*
Y1172440D3*
Y1192125D3*
Y1211810D3*
Y1231495D3*
Y1251180D3*
Y1270865D3*
Y1290550D3*
Y1310235D3*
Y1329920D3*
Y1349606D3*
Y1369291D3*
Y1388976D3*
Y1408661D3*
Y1428346D3*
Y1448031D3*
Y1467716D3*
Y1487401D3*
Y1507086D3*
Y1526771D3*
Y1546456D3*
Y1566141D3*
Y1585826D3*
Y1605511D3*
Y1625196D3*
Y1644881D3*
Y1664566D3*
Y1684251D3*
Y1703936D3*
Y1723621D3*
Y1743306D3*
Y1762991D3*
Y1782676D3*
D66*
X2907381Y1856495D3*
X2887696D3*
X2868011D3*
X2848326D3*
X2828641D3*
X2808956D3*
X2789271D3*
X2769586D3*
X2749901D3*
X2730216D3*
X2710531D3*
X2690846D3*
X2671161D3*
X2651476D3*
X2631791D3*
X2612106D3*
X2592420D3*
X2572735D3*
X2553050D3*
X2533365D3*
X2513680D3*
X2493995D3*
X2474310D3*
X2454625D3*
X2434940D3*
X2415255D3*
X2395570D3*
X2375885D3*
X2356200D3*
X2336515D3*
X2316830D3*
X2297145D3*
X2277460D3*
X2257775D3*
X2238090D3*
X2218405D3*
D65*
X2144586Y1782676D3*
Y1762991D3*
Y1743306D3*
Y1723621D3*
Y1703936D3*
Y1684251D3*
Y1664566D3*
Y1644881D3*
Y1625196D3*
Y1605511D3*
Y1585826D3*
Y1566141D3*
Y1546456D3*
Y1526771D3*
Y1507086D3*
Y1487401D3*
Y1467716D3*
Y1448031D3*
Y1428346D3*
Y1408661D3*
Y1388976D3*
Y1369291D3*
Y1349606D3*
Y1329920D3*
Y1310235D3*
Y1290550D3*
Y1270865D3*
Y1251180D3*
Y1231495D3*
Y1211810D3*
Y1192125D3*
Y1172440D3*
Y1152755D3*
Y1133070D3*
Y1113385D3*
Y1093700D3*
D66*
X2218405Y1019881D3*
X2238090D3*
X2257775D3*
X2277460D3*
X2297145D3*
X2316830D3*
X2336515D3*
X2356200D3*
X2375885D3*
X2395570D3*
X2415255D3*
X2434940D3*
X2454625D3*
X2474310D3*
X2493995D3*
X2513680D3*
X2533365D3*
X2553050D3*
X2572735D3*
X2592420D3*
X2612106D3*
X2631791D3*
X2651476D3*
X2671161D3*
X2690846D3*
X2710531D3*
X2730216D3*
X2749901D3*
X2769586D3*
X2789271D3*
X2808956D3*
X2828641D3*
X2848326D3*
X2868011D3*
X2887696D3*
X2907381D3*
D67*
X2231200Y2318700D3*
X2256791D3*
X2282381D3*
X2307972D3*
X2333562D3*
X2359153D3*
X2384743D3*
X2410334D3*
X2435924D3*
X2461515D3*
X2487106D3*
X2512696D3*
X2538287D3*
X2563877D3*
Y2547054D3*
X2538287Y2547046D3*
X2512696D3*
X2487106D3*
X2461515D3*
X2435924D3*
X2410334D3*
X2384743D3*
X2359153D3*
X2333562D3*
X2307972D3*
X2282381D3*
X2256791D3*
X2231200D3*
D69*
X2781200Y5518700D3*
Y5544289D3*
Y5569880D3*
Y5595470D3*
Y5621061D3*
Y5646651D3*
Y5672242D3*
X2547342D3*
Y5646651D3*
Y5621061D3*
Y5595470D3*
Y5569880D3*
Y5544289D3*
Y5518700D3*
D70*
X2664271Y5595470D3*
D72*
X931200Y3381200D3*
Y3471751D3*
Y3562302D3*
D73*
X702854Y3471751D3*
D75*
X906200Y5631200D3*
X880611D3*
X855020D3*
X829430D3*
X803839D3*
X778249D3*
X752658D3*
Y5397342D3*
X778249D3*
X803839D3*
X829430D3*
X855020D3*
X880611D3*
X906200D3*
D76*
X829430Y5514271D3*
D78*
X1618700Y3093700D3*
X1581298D3*
X1543897D3*
Y2987401D3*
X1618700D3*
X2468700Y3093700D3*
X2431298D3*
X2393897D3*
Y2987401D3*
X2468700D3*
X3318700Y3093700D3*
X3281298D3*
X3243897D3*
Y2987401D3*
X3318700D3*
D79*
X1518700Y3668700D3*
X1581692D3*
X1644684D3*
D80*
X1471456Y3767125D3*
X1691928D3*
D81*
X1522637Y3865550D3*
X1640747D3*
D79*
X2368700Y3668700D3*
X2431692D3*
X2494684D3*
D80*
X2321456Y3767125D3*
X2541928D3*
D81*
X2372637Y3865550D3*
X2490747D3*
D79*
X3218700Y3668700D3*
X3281692D3*
X3344684D3*
D80*
X3171456Y3767125D3*
X3391928D3*
D81*
X3222637Y3865550D3*
X3340747D3*
D82*
X3193700Y1243700D3*
Y1145275D3*
D83*
X3206200Y1537451D3*
Y1376033D3*
M02*
